<?xml version="1.0" encoding="UTF-8"?>
<svg id="Layer_1" xmlns="http://www.w3.org/2000/svg" version="1.1" viewBox="0 0 595.28 54.81">
  <!-- Generator: Adobe Illustrator 30.1.0, SVG Export Plug-In . SVG Version: 2.1.1 Build 136)  -->
  <defs>
    <style>
      .st0 {
        fill: #569ec4;
      }

      .st1 {
        fill: none;
        stroke: #569ec4;
        stroke-miterlimit: 10;
      }
    </style>
  </defs>
  <g>
    <path class="st0" d="M61.77,39.23v-7.09h1.43v5.88h2.8v1.21h-4.24Z"/>
    <path class="st0" d="M66.66,39.23v-1.54h1.44v1.54h-1.44Z"/>
    <path class="st0" d="M69.29,39.23v-7.09h1.43v5.88h2.8v1.21h-4.24Z"/>
    <path class="st0" d="M74.18,39.23v-1.54h1.44v1.54h-1.44Z"/>
    <path class="st0" d="M79.29,39.34c-.55,0-1.01-.07-1.37-.21-.36-.14-.64-.36-.85-.66-.21-.3-.35-.68-.43-1.14-.08-.46-.12-1.01-.12-1.65s.04-1.2.12-1.66c.08-.46.22-.84.43-1.14.21-.3.49-.52.86-.67s.83-.22,1.4-.22c.23,0,.47.01.72.04.25.03.49.06.72.1s.43.08.6.12l-.04,1.14c-.14-.03-.31-.05-.52-.08s-.42-.04-.63-.06c-.21-.01-.42-.02-.6-.02-.33,0-.6.04-.81.12-.21.08-.37.22-.48.42s-.19.44-.23.75c-.04.31-.06.69-.06,1.14s.02.82.06,1.13c.04.31.12.56.23.75.11.19.27.33.48.42.21.09.49.13.83.13.28,0,.58-.02.92-.05.34-.03.61-.06.84-.09l.03,1.13c-.17.04-.36.07-.59.11s-.47.07-.73.09c-.26.02-.51.04-.76.04Z"/>
    <path class="st0" d="M89.43,39.34c-.55,0-1.01-.07-1.37-.21-.36-.14-.64-.36-.85-.66-.21-.3-.35-.68-.43-1.14-.08-.46-.12-1.01-.12-1.65s.04-1.2.12-1.66c.08-.46.22-.84.43-1.14.21-.3.49-.52.86-.67s.83-.22,1.4-.22c.23,0,.47.01.72.04.25.03.49.06.72.1s.43.08.6.12l-.04,1.14c-.14-.03-.31-.05-.52-.08s-.42-.04-.63-.06c-.21-.01-.42-.02-.6-.02-.33,0-.6.04-.81.12-.21.08-.37.22-.48.42s-.19.44-.23.75c-.04.31-.06.69-.06,1.14s.02.82.06,1.13c.04.31.12.56.23.75.11.19.27.33.48.42.21.09.49.13.83.13.28,0,.58-.02.92-.05.34-.03.61-.06.84-.09l.03,1.13c-.17.04-.36.07-.59.11s-.47.07-.73.09c-.26.02-.51.04-.76.04Z"/>
    <path class="st0" d="M93.76,39.34c-.54,0-.95-.14-1.22-.41s-.41-.69-.41-1.24c0-.39.07-.69.21-.91.14-.22.34-.38.62-.48s.61-.16,1-.18l1.27-.11v-.31c0-.25-.06-.42-.19-.52s-.31-.15-.55-.15c-.19,0-.42,0-.67.02-.25.01-.5.03-.75.05s-.46.04-.64.06l-.04-.98c.18-.04.4-.08.65-.13.25-.04.52-.08.79-.11s.53-.04.77-.04c.44,0,.81.06,1.11.17.3.11.52.29.67.55.15.25.23.59.23,1.02v2.38c.01.1.07.17.16.22.09.05.19.09.31.11l-.03.96c-.11,0-.22,0-.33,0-.11,0-.21,0-.31,0-.1,0-.18-.01-.26-.03-.16-.02-.3-.06-.41-.12-.11-.06-.21-.13-.28-.2-.11.05-.26.1-.45.17-.19.06-.39.11-.61.16-.22.04-.44.06-.66.06ZM94.09,38.31c.13,0,.27-.01.42-.04.15-.03.28-.06.41-.1.13-.04.23-.07.31-.11v-1.19l-1.06.09c-.23.02-.39.09-.49.2-.1.11-.15.28-.15.48s.05.37.14.49c.09.12.24.18.43.18Z"/>
    <path class="st0" d="M97.83,41.42v-7.4h1.37v.33c.11-.06.23-.13.38-.2.15-.07.31-.13.48-.18.17-.05.34-.07.51-.07.46,0,.84.1,1.13.3s.5.5.63.89c.13.4.2.9.2,1.51,0,.65-.08,1.18-.23,1.58s-.4.7-.73.88c-.34.19-.78.28-1.32.28-.17,0-.36-.01-.56-.04-.2-.03-.36-.05-.48-.08v2.2h-1.38ZM100.03,38.19c.28,0,.5-.06.65-.18s.27-.3.34-.54c.07-.24.1-.54.1-.91,0-.57-.08-.96-.23-1.18s-.38-.33-.67-.33c-.11,0-.23.01-.35.04-.12.03-.25.06-.36.1s-.21.08-.29.12v2.78c.08,0,.2.02.36.04s.31.03.46.03Z"/>
    <path class="st0" d="M103.48,33.18v-1.18h1.39v1.18h-1.39ZM103.48,39.23v-5.21h1.38v5.21h-1.38Z"/>
    <path class="st0" d="M107.84,39.35c-.38,0-.69-.06-.92-.17-.24-.11-.4-.3-.5-.58-.1-.27-.15-.66-.15-1.15v-2.29h-.61v-1.15h.61v-1.38h1.38v1.38h1.33v1.15h-1.33v1.93c0,.27.01.48.04.63.02.15.08.26.16.32.08.06.21.09.38.09.05,0,.12,0,.22,0,.1,0,.19-.01.29-.02.1,0,.18-.01.24-.02l.04,1.11c-.1.02-.23.04-.38.06-.15.02-.29.04-.44.06s-.26.03-.36.03Z"/>
    <path class="st0" d="M111.1,39.34c-.54,0-.95-.14-1.22-.41s-.41-.69-.41-1.24c0-.39.07-.69.21-.91.14-.22.34-.38.62-.48s.61-.16,1-.18l1.27-.11v-.31c0-.25-.06-.42-.19-.52s-.31-.15-.55-.15c-.19,0-.42,0-.67.02-.25.01-.5.03-.75.05s-.46.04-.64.06l-.04-.98c.18-.04.4-.08.65-.13.25-.04.52-.08.79-.11s.53-.04.77-.04c.44,0,.81.06,1.11.17.3.11.52.29.67.55.15.25.23.59.23,1.02v2.38c.01.1.07.17.16.22.09.05.19.09.31.11l-.03.96c-.11,0-.22,0-.33,0-.11,0-.21,0-.31,0-.1,0-.18-.01-.26-.03-.16-.02-.3-.06-.41-.12-.11-.06-.21-.13-.28-.2-.11.05-.26.1-.45.17-.19.06-.39.11-.61.16-.22.04-.44.06-.66.06ZM111.43,38.31c.13,0,.27-.01.42-.04.15-.03.28-.06.41-.1.13-.04.23-.07.31-.11v-1.19l-1.06.09c-.23.02-.39.09-.49.2-.1.11-.15.28-.15.48s.05.37.14.49c.09.12.24.18.43.18Z"/>
    <path class="st0" d="M115.21,39.23v-7.34h1.38v7.34h-1.38Z"/>
    <path class="st0" d="M122.42,39.34c-.26,0-.55-.02-.86-.05-.31-.03-.61-.07-.91-.11-.29-.04-.55-.08-.75-.12l.09-1.13c.21.03.46.06.75.09.28.03.57.06.85.08.28.02.52.03.73.03.26,0,.48-.03.64-.1.17-.07.29-.17.37-.32.08-.14.12-.32.12-.54,0-.18-.04-.32-.11-.43s-.2-.19-.39-.26-.45-.13-.78-.19c-.42-.08-.77-.17-1.06-.27-.29-.1-.53-.23-.72-.39-.19-.16-.32-.35-.41-.6-.09-.24-.13-.54-.13-.88,0-.54.1-.96.3-1.27.2-.31.49-.53.86-.66.37-.13.81-.2,1.32-.2.23,0,.49.01.78.04.29.02.58.05.87.09.29.03.53.07.73.11l-.06,1.14c-.21-.03-.45-.05-.72-.08-.27-.02-.54-.05-.81-.07-.27-.02-.49-.03-.68-.03-.26,0-.47.03-.64.08-.17.05-.3.14-.38.26-.08.12-.12.27-.12.45,0,.21.04.37.12.48.08.11.22.2.42.27s.47.14.81.22c.41.09.76.19,1.04.29.29.1.52.23.7.37.18.15.31.33.39.56s.12.52.12.86c0,.55-.1,1-.3,1.33s-.48.58-.85.73c-.37.15-.81.22-1.33.22Z"/>
    <path class="st0" d="M125.89,39.23v-7.09h2.77c.57,0,1.04.07,1.43.22s.67.39.86.73c.19.34.29.8.29,1.38,0,.51-.09.94-.28,1.29s-.46.61-.84.77l1.11,2.7h-1.51l-.93-2.38h-1.47v2.38h-1.43ZM127.33,35.68h1.37c.26,0,.47-.05.63-.15.16-.1.27-.24.34-.43.07-.18.1-.39.1-.63,0-.39-.09-.68-.27-.87-.18-.19-.46-.29-.84-.29h-1.34v2.37Z"/>
    <path class="st0" d="M132.19,36.12v-1.54h1.44v1.54h-1.44ZM132.19,39.23v-1.54h1.44v1.54h-1.44Z"/>
    <path class="st0" d="M137.06,39.23v-1.12l1.57-1.61c.3-.3.55-.57.77-.8.21-.23.38-.45.49-.66.11-.21.17-.43.17-.66,0-.35-.1-.58-.29-.7s-.51-.18-.93-.18c-.17,0-.36.01-.57.03-.21.02-.41.04-.6.07-.19.03-.35.06-.49.08l-.07-1.1c.15-.04.34-.09.57-.13.22-.05.47-.09.74-.13.27-.04.53-.06.78-.06.75,0,1.32.16,1.71.47.39.32.59.8.59,1.46,0,.36-.05.68-.15.96-.1.28-.26.54-.47.79-.21.25-.49.53-.84.83l-1.37,1.31h2.92v1.16h-4.53Z"/>
    <path class="st0" d="M145.15,39.34c-.26,0-.55-.02-.85-.06s-.6-.08-.88-.14c-.28-.06-.53-.1-.73-.15l.12-1.06c.19.03.41.06.66.1.26.04.52.07.79.09.27.02.52.03.74.03.35,0,.63-.09.84-.28s.31-.45.31-.8c0-.24-.04-.43-.13-.57s-.21-.24-.37-.3-.35-.09-.57-.09c-.17,0-.33.02-.5.05-.17.03-.32.07-.47.11-.15.04-.26.09-.35.14l-.93-.15.17-3.9h4.29v1.26h-3.17l-.14,1.53c.1-.04.22-.08.36-.13.15-.04.3-.08.47-.12.17-.04.33-.05.49-.05.48,0,.88.07,1.21.2.33.13.59.35.76.65.18.3.26.72.26,1.25s-.1,1-.3,1.34-.47.61-.83.78-.78.26-1.28.26Z"/>
    <path class="st0" d="M152.28,39.23v-5.88h-1.91v-1.21h5.19v1.21h-1.85v5.88h-1.43Z"/>
    <path class="st0" d="M156.26,39.23v-7.34h1.38v2.32c.12-.04.26-.08.42-.13s.33-.08.51-.12c.18-.03.34-.05.48-.05.37,0,.67.05.91.14.24.09.43.24.57.45.14.2.24.47.3.8s.09.73.09,1.2v2.73h-1.39v-2.63c0-.36-.02-.65-.06-.87s-.12-.38-.23-.47c-.11-.1-.29-.15-.52-.15-.12,0-.25.01-.38.03s-.26.05-.38.08c-.12.04-.22.07-.3.09v3.9h-1.38Z"/>
    <path class="st0" d="M164.24,39.34c-.59,0-1.06-.1-1.42-.29-.36-.19-.61-.49-.77-.9-.16-.4-.24-.93-.24-1.57s.08-1.13.25-1.52c.17-.39.43-.68.79-.87s.82-.29,1.39-.29,1.04.1,1.4.29.62.48.79.87c.17.39.25.9.25,1.52s-.08,1.17-.24,1.57c-.16.41-.42.71-.77.9-.36.19-.83.29-1.43.29ZM164.24,38.2c.29,0,.51-.05.65-.16.15-.11.24-.28.3-.52.05-.24.08-.55.08-.94s-.03-.68-.09-.91c-.06-.22-.17-.39-.31-.48s-.35-.15-.62-.15-.47.05-.62.15-.25.26-.32.48c-.06.23-.09.53-.09.91s.03.7.08.94c.05.24.15.41.3.52.15.11.36.16.65.16Z"/>
    <path class="st0" d="M169.29,39.34c-.45,0-.8-.1-1.04-.29-.25-.19-.42-.48-.52-.87-.1-.39-.15-.88-.15-1.46v-2.71h1.38v2.65c0,.37.02.66.06.87.04.21.12.37.23.46s.29.13.51.13.42-.03.6-.08c.19-.06.34-.11.45-.17v-3.86h1.38v5.21h-1.37v-.32c-.24.13-.47.24-.7.32-.23.08-.51.12-.83.12Z"/>
    <path class="st0" d="M175.21,39.34c-.23,0-.47-.01-.73-.04-.26-.02-.5-.05-.73-.09-.23-.03-.42-.07-.58-.1l.04-1.03c.18.02.38.05.61.07.22.03.45.05.66.07.22.02.4.03.53.03.21,0,.38-.02.51-.05.13-.03.24-.09.31-.17.07-.08.1-.2.1-.35,0-.12-.03-.21-.09-.27-.06-.06-.17-.12-.33-.16-.16-.04-.4-.09-.71-.14-.39-.06-.71-.13-.96-.24-.25-.1-.44-.26-.56-.46s-.18-.48-.18-.84c0-.43.09-.76.28-1.01.19-.24.44-.41.75-.51.31-.1.65-.15,1.02-.15.24,0,.49.01.75.04.26.02.5.05.73.09.23.03.42.07.57.1l-.04,1.05c-.17-.03-.37-.05-.6-.08-.23-.02-.46-.04-.68-.06-.23-.01-.41-.02-.57-.02-.16,0-.3.02-.43.05-.12.03-.22.08-.29.15s-.1.17-.1.31c0,.1.03.18.08.24.06.06.16.12.32.16s.38.09.68.13c.43.06.77.15,1.03.26.26.11.44.27.56.48s.17.49.17.84c0,.42-.08.75-.25,1-.17.25-.41.43-.73.54-.32.11-.71.17-1.16.17Z"/>
    <path class="st0" d="M179.62,39.34c-.54,0-.95-.14-1.22-.41s-.41-.69-.41-1.24c0-.39.07-.69.21-.91.14-.22.34-.38.62-.48s.61-.16,1-.18l1.27-.11v-.31c0-.25-.06-.42-.19-.52s-.31-.15-.55-.15c-.19,0-.42,0-.67.02-.25.01-.5.03-.75.05s-.46.04-.64.06l-.04-.98c.18-.04.4-.08.65-.13.25-.04.52-.08.79-.11s.53-.04.77-.04c.44,0,.81.06,1.11.17.3.11.52.29.67.55.15.25.23.59.23,1.02v2.38c.01.1.07.17.16.22.09.05.19.09.31.11l-.03.96c-.11,0-.22,0-.33,0-.11,0-.21,0-.31,0-.1,0-.18-.01-.26-.03-.16-.02-.3-.06-.41-.12-.11-.06-.21-.13-.28-.2-.11.05-.26.1-.45.17-.19.06-.39.11-.61.16-.22.04-.44.06-.66.06ZM179.95,38.31c.13,0,.27-.01.42-.04.15-.03.28-.06.41-.1.13-.04.23-.07.31-.11v-1.19l-1.06.09c-.23.02-.39.09-.49.2-.1.11-.15.28-.15.48s.05.37.14.49c.09.12.24.18.43.18Z"/>
    <path class="st0" d="M183.69,39.23v-5.21h1.38v.33c.11-.07.25-.14.4-.2.16-.07.33-.12.5-.17.18-.05.35-.07.51-.07.36,0,.66.05.9.14.24.09.43.24.57.45.14.21.24.48.3.82.06.34.09.74.09,1.22v2.7h-1.39v-2.63c0-.36-.02-.65-.06-.87s-.12-.38-.24-.47c-.12-.1-.29-.15-.52-.15-.12,0-.25.01-.39.04-.13.02-.26.06-.38.1-.12.04-.22.08-.3.12v3.85h-1.38Z"/>
    <path class="st0" d="M191.19,39.34c-.25,0-.48-.03-.69-.09-.21-.06-.39-.15-.54-.28-.16-.13-.29-.3-.4-.5-.11-.21-.19-.46-.24-.76-.06-.3-.08-.65-.08-1.05,0-.6.07-1.1.22-1.51.15-.41.39-.72.71-.93.33-.21.76-.32,1.3-.32.1,0,.22,0,.36.02.14.01.27.02.41.04.13.02.24.03.32.05v-2.12h1.39v7.34h-1.37v-.3c-.11.05-.23.12-.39.18-.16.07-.32.12-.49.17-.17.04-.34.07-.51.07ZM191.54,38.18c.12,0,.25-.01.38-.04.13-.03.25-.06.36-.1s.21-.08.28-.11v-2.79c-.06-.01-.15-.03-.25-.04-.1,0-.21-.02-.32-.03-.11,0-.21-.02-.3-.02-.27,0-.48.06-.63.19-.15.12-.25.31-.32.54-.06.24-.09.53-.09.87,0,.3.02.54.06.74s.1.35.18.47c.08.11.17.2.29.24.11.05.23.07.36.07Z"/>
    <path class="st0" d="M195.06,37.06v-1.18h3.14v1.18h-3.14Z"/>
    <path class="st0" d="M204.2,39.34c-.55,0-1.01-.07-1.37-.21-.36-.14-.64-.36-.85-.66-.21-.3-.35-.68-.43-1.14-.08-.46-.12-1.01-.12-1.65s.04-1.2.12-1.66c.08-.46.22-.84.43-1.14.21-.3.49-.52.86-.67s.83-.22,1.4-.22c.23,0,.47.01.72.04.25.03.49.06.72.1s.43.08.6.12l-.04,1.14c-.14-.03-.31-.05-.52-.08s-.42-.04-.63-.06c-.21-.01-.42-.02-.6-.02-.33,0-.6.04-.81.12-.21.08-.37.22-.48.42s-.19.44-.23.75c-.04.31-.06.69-.06,1.14s.02.82.06,1.13c.04.31.12.56.23.75.11.19.27.33.48.42.21.09.49.13.83.13.28,0,.58-.02.92-.05.34-.03.61-.06.84-.09l.03,1.13c-.17.04-.36.07-.59.11s-.47.07-.73.09c-.26.02-.51.04-.76.04Z"/>
    <path class="st0" d="M207.25,39.23v-7.09h2.77c.57,0,1.04.07,1.43.22s.67.39.86.73c.19.34.29.8.29,1.38,0,.51-.09.94-.28,1.29s-.46.61-.84.77l1.11,2.7h-1.51l-.93-2.38h-1.47v2.38h-1.43ZM208.68,35.68h1.37c.26,0,.47-.05.63-.15.16-.1.27-.24.34-.43.07-.18.1-.39.1-.63,0-.39-.09-.68-.27-.87-.18-.19-.46-.29-.84-.29h-1.34v2.37Z"/>
    <path class="st0" d="M215.91,39.23v-7.09h1.87l2.27,4.98h.19v-4.98h1.43v7.09h-1.85l-2.29-5.07h-.19v5.07h-1.43Z"/>
    <path class="st0" d="M225.09,39.34c-.59,0-1.06-.1-1.42-.29-.36-.19-.61-.49-.77-.9-.16-.4-.24-.93-.24-1.57s.08-1.13.25-1.52c.17-.39.43-.68.79-.87s.82-.29,1.39-.29,1.04.1,1.4.29.62.48.79.87c.17.39.25.9.25,1.52s-.08,1.17-.24,1.57c-.16.41-.42.71-.77.9-.36.19-.83.29-1.43.29ZM225.09,38.2c.29,0,.51-.05.65-.16.15-.11.24-.28.3-.52.05-.24.08-.55.08-.94s-.03-.68-.09-.91c-.06-.22-.17-.39-.31-.48s-.35-.15-.62-.15-.47.05-.62.15-.25.26-.32.48c-.06.23-.09.53-.09.91s.03.7.08.94c.05.24.15.41.3.52.15.11.36.16.65.16Z"/>
    <path class="st0" d="M228.45,37.06v-1.18h3.14v1.18h-3.14Z"/>
    <path class="st0" d="M235.83,40.53c-.12-.21-.24-.48-.36-.8s-.24-.68-.35-1.07c-.11-.39-.19-.8-.26-1.24-.07-.43-.1-.87-.1-1.31s.03-.89.1-1.34c.07-.45.15-.88.26-1.3.11-.42.22-.8.35-1.15s.25-.64.36-.88h1.29c-.1.27-.2.59-.31.97s-.21.77-.3,1.19c-.09.42-.16.85-.22,1.28-.06.43-.09.84-.09,1.22s.03.78.09,1.19c.06.41.13.82.22,1.22.09.4.19.78.3,1.12.11.35.21.64.31.89h-1.29Z"/>
    <path class="st0" d="M240.31,39.23v-5.32l-1.62.93-.48-1.03,2.27-1.44h1.24v6.85h-1.41Z"/>
    <path class="st0" d="M246.04,39.34c-.44,0-.83-.06-1.15-.18-.33-.12-.59-.32-.8-.59-.21-.27-.37-.63-.48-1.08-.11-.44-.16-.99-.16-1.63s.05-1.23.16-1.69.27-.84.48-1.12c.21-.28.48-.48.8-.61.32-.12.7-.19,1.14-.19s.84.06,1.16.19c.33.12.59.33.8.61.21.28.37.65.47,1.11.1.46.15,1.03.15,1.7,0,.85-.09,1.53-.28,2.04-.18.51-.47.88-.85,1.1-.38.23-.87.34-1.45.34ZM246.04,38.14c.19,0,.36-.03.5-.1.14-.07.26-.18.36-.35.1-.17.17-.4.21-.7s.07-.67.07-1.13c0-.48-.02-.88-.07-1.19s-.11-.56-.2-.73c-.09-.18-.21-.3-.35-.37-.15-.07-.32-.11-.52-.11s-.37.04-.52.11c-.15.07-.27.2-.36.37s-.16.42-.21.73c-.05.31-.07.72-.07,1.21,0,.46.03.83.08,1.13.05.3.13.53.22.69.1.16.22.28.36.34.14.07.31.1.5.1Z"/>
    <path class="st0" d="M251.86,39.23v-5.32l-1.62.93-.48-1.03,2.27-1.44h1.24v6.85h-1.41Z"/>
    <path class="st0" d="M257.58,39.34c-.44,0-.83-.06-1.15-.18-.33-.12-.59-.32-.8-.59-.21-.27-.37-.63-.48-1.08-.11-.44-.16-.99-.16-1.63s.05-1.23.16-1.69.27-.84.48-1.12c.21-.28.48-.48.8-.61.32-.12.7-.19,1.14-.19s.84.06,1.16.19c.33.12.59.33.8.61.21.28.37.65.47,1.11.1.46.15,1.03.15,1.7,0,.85-.09,1.53-.28,2.04-.18.51-.47.88-.85,1.1-.38.23-.87.34-1.45.34ZM257.58,38.14c.19,0,.36-.03.5-.1.14-.07.26-.18.36-.35.1-.17.17-.4.21-.7s.07-.67.07-1.13c0-.48-.02-.88-.07-1.19s-.11-.56-.2-.73c-.09-.18-.21-.3-.35-.37-.15-.07-.32-.11-.52-.11s-.37.04-.52.11c-.15.07-.27.2-.36.37s-.16.42-.21.73c-.05.31-.07.72-.07,1.21,0,.46.03.83.08,1.13.05.3.13.53.22.69.1.16.22.28.36.34.14.07.31.1.5.1Z"/>
    <path class="st0" d="M263.92,39.23v-1.14h-3.11v-1.04l1.56-4.67h1.6l-1.73,4.52h1.69l.08-1.77,1.33-.02v1.79h.63v1.19h-.63v1.14h-1.41Z"/>
    <path class="st0" d="M269.17,39.34c-.26,0-.55-.02-.85-.06s-.6-.08-.88-.14c-.28-.06-.53-.1-.73-.15l.12-1.06c.19.03.41.06.66.1.26.04.52.07.79.09.27.02.52.03.74.03.35,0,.63-.09.84-.28s.31-.45.31-.8c0-.24-.04-.43-.13-.57s-.21-.24-.37-.3-.35-.09-.57-.09c-.17,0-.33.02-.5.05-.17.03-.32.07-.47.11-.15.04-.26.09-.35.14l-.93-.15.17-3.9h4.29v1.26h-3.17l-.14,1.53c.1-.04.22-.08.36-.13.15-.04.3-.08.47-.12.17-.04.33-.05.49-.05.48,0,.88.07,1.21.2.33.13.59.35.76.65.18.3.26.72.26,1.25s-.1,1-.3,1.34-.47.61-.83.78-.78.26-1.28.26Z"/>
    <path class="st0" d="M274.81,39.34l-1.37-.33,2.24-5.07v-.27h-2.98v-1.3h4.43v1.55l-2.33,5.42Z"/>
    <path class="st0" d="M280.75,39.34c-.6,0-1.08-.14-1.46-.42-.38-.28-.66-.68-.85-1.21-.18-.53-.27-1.16-.27-1.91,0-.67.07-1.22.2-1.68.14-.45.33-.82.57-1.09s.54-.47.88-.6c.34-.12.71-.19,1.12-.19.21,0,.45.01.7.04.25.03.5.06.74.1.24.04.45.07.61.11l-.11,1.07c-.15-.01-.33-.03-.54-.05-.22-.02-.44-.04-.68-.06s-.46-.03-.67-.03c-.47,0-.82.15-1.06.44-.24.29-.36.71-.37,1.26.07-.02.16-.05.26-.08.11-.03.23-.07.35-.1s.26-.07.39-.09c.13-.02.26-.04.37-.04.77,0,1.34.18,1.73.54s.58.92.58,1.68c0,.51-.1.94-.3,1.28-.2.34-.48.59-.85.76-.37.17-.81.25-1.33.25ZM280.75,38.18c.38,0,.67-.1.86-.3s.29-.48.29-.84-.1-.62-.29-.79c-.19-.17-.47-.25-.82-.25-.15,0-.3.01-.46.04-.16.03-.31.06-.45.11-.14.04-.25.09-.34.13,0,.37.05.69.12.98s.2.51.38.67c.18.16.41.24.71.24Z"/>
    <path class="st0" d="M286.5,39.23v-5.32l-1.62.93-.48-1.03,2.27-1.44h1.24v6.85h-1.41Z"/>
    <path class="st0" d="M292.78,39.23v-1.14h-3.11v-1.04l1.56-4.67h1.6l-1.73,4.52h1.69l.08-1.77,1.33-.02v1.79h.63v1.19h-.63v1.14h-1.41Z"/>
    <path class="st0" d="M296.66,40.51h-1.29c.1-.26.2-.57.31-.92.11-.35.21-.73.3-1.14s.16-.82.22-1.25c.06-.42.09-.82.09-1.21s-.03-.78-.09-1.2c-.06-.42-.13-.84-.22-1.26-.09-.42-.19-.8-.3-1.17s-.21-.68-.31-.94h1.29c.12.23.24.51.36.85s.24.71.35,1.12.19.83.26,1.28.1.89.1,1.32-.03.88-.1,1.32-.15.86-.26,1.26-.22.77-.35,1.1-.25.61-.36.83Z"/>
    <path class="st0" d="M298.65,37.06v-1.18h3.14v1.18h-3.14Z"/>
    <path class="st0" d="M305.23,39.23v-7.09h1.43v2.96h2.75v-2.96h1.43v7.09h-1.43v-2.93h-2.75v2.93h-1.43Z"/>
    <path class="st0" d="M314.13,39.34c-.57,0-1.03-.1-1.37-.29-.34-.19-.58-.49-.72-.88s-.22-.89-.22-1.48c0-.64.09-1.17.27-1.58.18-.41.45-.71.8-.91s.79-.3,1.31-.3c.77,0,1.35.19,1.74.58s.59,1,.59,1.84l-.06.77h-3.26c0,.39.09.68.24.87.15.19.42.29.79.29.21,0,.45,0,.71-.01.26-.01.51-.02.76-.04.25-.01.47-.03.65-.04l.03.97c-.17.03-.39.06-.65.09-.26.04-.53.06-.81.09-.28.02-.55.04-.79.04ZM313.22,36.21h1.94c0-.47-.07-.8-.22-.99-.15-.19-.39-.28-.72-.28-.22,0-.41.04-.55.12-.15.08-.26.22-.33.41-.08.19-.11.43-.11.74Z"/>
    <path class="st0" d="M318.82,39.34c-.54,0-.95-.14-1.22-.41s-.41-.69-.41-1.24c0-.39.07-.69.21-.91.14-.22.34-.38.62-.48s.61-.16,1-.18l1.27-.11v-.31c0-.25-.06-.42-.19-.52s-.31-.15-.55-.15c-.19,0-.42,0-.67.02-.25.01-.5.03-.75.05s-.46.04-.64.06l-.04-.98c.18-.04.4-.08.65-.13.25-.04.52-.08.79-.11s.53-.04.77-.04c.44,0,.81.06,1.11.17.3.11.52.29.67.55.15.25.23.59.23,1.02v2.38c.01.1.07.17.16.22.09.05.19.09.31.11l-.03.96c-.11,0-.22,0-.33,0-.11,0-.21,0-.31,0-.1,0-.18-.01-.26-.03-.16-.02-.3-.06-.41-.12-.11-.06-.21-.13-.28-.2-.11.05-.26.1-.45.17-.19.06-.39.11-.61.16-.22.04-.44.06-.66.06ZM319.15,38.31c.13,0,.27-.01.42-.04.15-.03.28-.06.41-.1.13-.04.23-.07.31-.11v-1.19l-1.06.09c-.23.02-.39.09-.49.2-.1.11-.15.28-.15.48s.05.37.14.49c.09.12.24.18.43.18Z"/>
    <path class="st0" d="M324.64,39.34c-.25,0-.48-.03-.69-.09-.21-.06-.39-.15-.54-.28-.16-.13-.29-.3-.4-.5-.11-.21-.19-.46-.24-.76-.06-.3-.08-.65-.08-1.05,0-.6.07-1.1.22-1.51.15-.41.39-.72.71-.93.33-.21.76-.32,1.3-.32.1,0,.22,0,.36.02.14.01.27.02.41.04.13.02.24.03.32.05v-2.12h1.39v7.34h-1.37v-.3c-.11.05-.23.12-.39.18-.16.07-.32.12-.49.17-.17.04-.34.07-.51.07ZM324.99,38.18c.12,0,.25-.01.38-.04.13-.03.25-.06.36-.1s.21-.08.28-.11v-2.79c-.06-.01-.15-.03-.25-.04-.1,0-.21-.02-.32-.03-.11,0-.21-.02-.3-.02-.27,0-.48.06-.63.19-.15.12-.25.31-.32.54-.06.24-.09.53-.09.87,0,.3.02.54.06.74s.1.35.18.47c.08.11.17.2.29.24.11.05.23.07.36.07Z"/>
    <path class="st0" d="M333.69,39.34c-.75,0-1.35-.13-1.79-.4-.44-.27-.75-.67-.94-1.21s-.29-1.21-.29-2.03.1-1.5.29-2.04.5-.96.94-1.24c.44-.28,1.04-.42,1.79-.42s1.35.14,1.79.42c.44.28.75.69.95,1.24s.29,1.23.29,2.04-.09,1.51-.29,2.05-.51.94-.95,1.2-1.04.39-1.79.39ZM333.69,38.14c.44,0,.77-.09.99-.27.22-.18.38-.45.45-.81s.11-.82.11-1.36-.04-1-.12-1.37c-.08-.37-.23-.65-.45-.84s-.55-.29-.99-.29-.76.1-.98.29c-.23.19-.38.47-.46.84-.08.37-.12.83-.12,1.37s.04.98.12,1.34c.08.36.23.63.46.82.23.18.56.28.99.28Z"/>
    <path class="st0" d="M337.91,39.23v-4.06h-.52v-1.15h.52v-.3c0-.49.05-.88.14-1.16s.25-.48.48-.6c.23-.12.54-.18.92-.18.11,0,.24,0,.4.02.16.01.31.02.45.04.15.01.26.03.33.04v1.06c-.12,0-.24,0-.38,0-.13,0-.25,0-.35,0-.15,0-.28.02-.37.07-.09.05-.16.13-.2.24-.04.11-.06.27-.06.48v.31h1.25v1.15h-1.25v4.06h-1.38Z"/>
    <path class="st0" d="M341.46,39.23v-4.06h-.52v-1.15h.52v-.3c0-.49.05-.88.14-1.16s.25-.48.48-.6c.23-.12.54-.18.92-.18.11,0,.24,0,.4.02.16.01.31.02.45.04.15.01.26.03.33.04v1.06c-.12,0-.24,0-.38,0-.13,0-.25,0-.35,0-.15,0-.28.02-.37.07-.09.05-.16.13-.2.24-.04.11-.06.27-.06.48v.31h1.25v1.15h-1.25v4.06h-1.38Z"/>
    <path class="st0" d="M344.81,33.18v-1.18h1.39v1.18h-1.39ZM344.81,39.23v-5.21h1.38v5.21h-1.38Z"/>
    <path class="st0" d="M349.47,39.34c-.6,0-1.06-.09-1.4-.28-.33-.18-.57-.48-.71-.89-.13-.41-.2-.95-.2-1.61s.08-1.18.23-1.57c.15-.39.4-.67.74-.84s.79-.25,1.34-.25c.15,0,.32.01.51.03.19.02.39.05.59.08s.37.06.5.09l-.05,1.11c-.13-.01-.28-.03-.45-.04-.17-.01-.33-.02-.48-.03-.16-.01-.28-.02-.38-.02-.3,0-.53.05-.7.14-.17.09-.29.25-.35.46-.07.21-.1.49-.1.85,0,.38.03.69.09.91s.17.39.34.49c.16.1.4.15.72.15.1,0,.22,0,.38-.02.16,0,.32-.02.49-.04.17-.01.32-.02.45-.03l.04,1.11c-.14.03-.3.06-.5.09-.19.03-.39.06-.59.08s-.38.03-.53.03Z"/>
    <path class="st0" d="M354.04,39.34c-.57,0-1.03-.1-1.37-.29-.34-.19-.58-.49-.72-.88s-.22-.89-.22-1.48c0-.64.09-1.17.28-1.58.18-.41.45-.71.8-.91.35-.2.79-.3,1.31-.3.77,0,1.35.19,1.74.58.39.39.59,1,.59,1.84l-.06.77h-3.26c0,.39.09.68.24.87.15.19.42.29.79.29.21,0,.45,0,.71-.01.26-.01.51-.02.76-.04.25-.01.47-.03.65-.04l.03.97c-.17.03-.39.06-.65.09-.26.04-.53.06-.81.09s-.54.04-.79.04ZM353.13,36.21h1.94c0-.47-.07-.8-.22-.99-.15-.19-.39-.28-.72-.28-.22,0-.4.04-.55.12s-.26.22-.33.41c-.08.19-.11.43-.11.74Z"/>
    <path class="st0" d="M359.6,36.12v-1.54h1.44v1.54h-1.44ZM359.6,39.23v-1.54h1.44v1.54h-1.44Z"/>
    <path class="st0" d="M364.52,39.23v-7.09h2.77c.57,0,1.04.07,1.43.22s.67.39.86.73c.19.34.29.8.29,1.38,0,.51-.09.94-.28,1.29s-.46.61-.84.77l1.11,2.7h-1.51l-.93-2.38h-1.47v2.38h-1.43ZM365.95,35.68h1.37c.26,0,.47-.05.63-.15.16-.1.27-.24.34-.43.07-.18.1-.39.1-.63,0-.39-.09-.68-.27-.87-.18-.19-.46-.29-.84-.29h-1.34v2.37Z"/>
    <path class="st0" d="M370.83,33.18v-1.18h1.39v1.18h-1.39ZM370.83,39.23v-5.21h1.38v5.21h-1.38Z"/>
    <path class="st0" d="M374.64,41.42l.66-2.19h-1.11l-1.24-5.21h1.44l.92,4.04h.27l.92-4.04h1.39l-1.8,7.4h-1.47Z"/>
    <path class="st0" d="M379.96,39.34c-.54,0-.95-.14-1.22-.41s-.41-.69-.41-1.24c0-.39.07-.69.21-.91s.34-.38.62-.48.61-.16,1-.18l1.27-.11v-.31c0-.25-.06-.42-.19-.52-.12-.1-.31-.15-.55-.15-.19,0-.42,0-.67.02s-.5.03-.75.05c-.25.02-.46.04-.64.06l-.04-.98c.18-.04.4-.08.65-.13.25-.04.52-.08.79-.11.28-.03.53-.04.77-.04.44,0,.81.06,1.11.17.3.11.52.29.67.55.15.25.23.59.23,1.02v2.38c.01.1.07.17.16.22.09.05.19.09.31.11l-.03.96c-.11,0-.22,0-.33,0-.11,0-.21,0-.31,0-.1,0-.18-.01-.26-.03-.16-.02-.3-.06-.41-.12-.11-.06-.21-.13-.28-.2-.11.05-.26.1-.45.17-.19.06-.39.11-.61.16-.22.04-.44.06-.66.06ZM380.29,38.31c.13,0,.27-.01.42-.04s.28-.06.41-.1.23-.07.31-.11v-1.19l-1.06.09c-.23.02-.39.09-.49.2-.1.11-.15.28-.15.48s.05.37.14.49c.09.12.24.18.43.18Z"/>
    <path class="st0" d="M385.78,39.34c-.25,0-.48-.03-.69-.09-.21-.06-.39-.15-.54-.28-.16-.13-.29-.3-.39-.5-.11-.21-.19-.46-.24-.76-.06-.3-.08-.65-.08-1.05,0-.6.07-1.1.22-1.51.15-.41.39-.72.71-.93.33-.21.76-.32,1.3-.32.1,0,.22,0,.36.02.14.01.27.02.41.04.13.02.24.03.32.05v-2.12h1.39v7.34h-1.37v-.3c-.11.05-.23.12-.39.18-.16.07-.32.12-.49.17s-.34.07-.51.07ZM386.13,38.18c.12,0,.25-.01.38-.04.13-.03.25-.06.36-.1s.21-.08.27-.11v-2.79c-.06-.01-.14-.03-.25-.04-.1,0-.21-.02-.32-.03-.11,0-.21-.02-.3-.02-.27,0-.48.06-.63.19-.15.12-.25.31-.32.54-.06.24-.09.53-.09.87,0,.3.02.54.06.74.04.2.1.35.18.47.08.11.17.2.29.24.11.05.23.07.36.07Z"/>
    <path class="st0" d="M389.69,39.23v-7.34h1.38v2.32c.12-.04.26-.08.42-.13.16-.04.33-.08.51-.12.18-.03.34-.05.48-.05.37,0,.67.05.91.14.24.09.43.24.57.45s.24.47.3.8.09.73.09,1.2v2.73h-1.39v-2.63c0-.36-.02-.65-.06-.87-.04-.22-.12-.38-.23-.47-.11-.1-.29-.15-.52-.15-.12,0-.25.01-.38.03s-.26.05-.38.08c-.12.04-.22.07-.3.09v3.9h-1.38Z"/>
    <path class="st0" d="M395.4,37.06v-1.18h3.14v1.18h-3.14Z"/>
    <path class="st0" d="M401.98,39.23v-7.09h2.67c.59,0,1.08.08,1.46.24.39.16.68.42.88.78.2.36.3.84.3,1.44s-.1,1.09-.3,1.47-.49.65-.88.83c-.39.18-.88.26-1.46.26h-1.24v2.06h-1.43ZM403.41,36h1.19c.44,0,.75-.12.93-.35.19-.23.28-.58.28-1.03s-.09-.81-.28-1.01c-.19-.2-.5-.3-.93-.3h-1.19v2.69Z"/>
    <path class="st0" d="M407.76,39.23v-1.54h1.44v1.54h-1.44Z"/>
    <path class="st0" d="M413.11,39.34c-.75,0-1.35-.13-1.79-.4s-.75-.67-.95-1.21-.29-1.21-.29-2.03.09-1.5.29-2.04.51-.96.95-1.24c.44-.28,1.04-.42,1.79-.42s1.35.14,1.79.42c.44.28.75.69.95,1.24s.29,1.23.29,2.04-.09,1.51-.29,2.05-.51.94-.95,1.2-1.04.39-1.79.39ZM413.11,38.14c.44,0,.77-.09.99-.27.22-.18.38-.45.45-.81s.11-.82.11-1.36-.04-1-.12-1.37c-.08-.37-.23-.65-.45-.84s-.55-.29-.99-.29-.76.1-.98.29c-.22.19-.38.47-.46.84s-.12.83-.12,1.37.04.98.12,1.34c.08.36.23.63.46.82.22.18.56.28.99.28Z"/>
    <path class="st0" d="M419.48,39.23v-7.09h2.82c.47,0,.88.06,1.21.18.34.12.6.31.79.57.19.26.29.61.29,1.04,0,.3-.03.55-.09.75-.06.21-.15.38-.27.52s-.28.27-.47.39c.21.08.39.18.55.31.16.13.27.3.36.51.08.21.12.49.12.84,0,.38-.06.7-.18.96-.12.26-.29.46-.5.61-.22.15-.47.26-.76.33s-.61.1-.96.1h-2.92ZM420.91,35.13h1.34c.24,0,.43-.04.57-.11.15-.07.25-.18.32-.33.07-.15.1-.34.1-.57,0-.33-.08-.56-.25-.71-.17-.14-.43-.22-.79-.22h-1.29v1.93ZM420.91,38.17h1.38c.24,0,.45-.03.61-.09.16-.06.29-.16.37-.32.09-.15.13-.36.13-.63,0-.21-.03-.38-.1-.51-.07-.13-.16-.23-.27-.3-.11-.07-.23-.11-.37-.14-.13-.03-.27-.04-.4-.04h-1.35v2.02Z"/>
    <path class="st0" d="M427.99,39.34c-.59,0-1.06-.1-1.42-.29-.36-.19-.61-.49-.77-.9-.16-.4-.24-.93-.24-1.57s.08-1.13.25-1.52c.17-.39.43-.68.79-.87.36-.19.82-.29,1.39-.29s1.04.1,1.4.29.62.48.79.87c.17.39.25.9.25,1.52s-.08,1.17-.24,1.57c-.16.41-.42.71-.77.9-.36.19-.83.29-1.43.29ZM427.99,38.2c.29,0,.51-.05.65-.16.15-.11.24-.28.3-.52.05-.24.08-.55.08-.94s-.03-.68-.09-.91c-.06-.22-.17-.39-.31-.48-.15-.1-.35-.15-.62-.15s-.47.05-.62.15c-.15.1-.25.26-.32.48-.06.23-.09.53-.09.91s.03.7.08.94c.05.24.15.41.3.52.15.11.36.16.65.16Z"/>
    <path class="st0" d="M430.7,39.23l1.39-2.6-1.39-2.62h1.5l.92,1.81.93-1.81h1.41l-1.36,2.59,1.35,2.63h-1.51l-.92-1.74-.89,1.74h-1.43Z"/>
    <path class="st0" d="M436.02,37.06v-1.18h3.14v1.18h-3.14Z"/>
    <path class="st0" d="M444.89,39.23v-5.32l-1.62.93-.48-1.03,2.27-1.44h1.24v6.85h-1.41Z"/>
    <path class="st0" d="M448.33,39.23v-1.12l1.57-1.61c.3-.3.55-.57.77-.8.21-.23.38-.45.49-.66.11-.21.17-.43.17-.66,0-.35-.1-.58-.29-.7-.19-.12-.51-.18-.93-.18-.17,0-.36.01-.57.03-.21.02-.41.04-.6.07-.19.03-.35.06-.49.08l-.07-1.1c.15-.04.34-.09.57-.13.23-.05.47-.09.74-.13s.53-.06.78-.06c.75,0,1.32.16,1.71.47.39.32.59.8.59,1.46,0,.36-.05.68-.15.96-.1.28-.26.54-.47.79s-.49.53-.84.83l-1.37,1.31h2.92v1.16h-4.53Z"/>
    <path class="st0" d="M456.94,39.23v-1.14h-3.12v-1.04l1.56-4.67h1.6l-1.73,4.52h1.69l.08-1.77,1.33-.02v1.79h.63v1.19h-.63v1.14h-1.41Z"/>
    <path class="st0" d="M462.13,39.34c-.35,0-.68-.03-1-.09-.32-.06-.6-.16-.84-.3-.24-.14-.43-.34-.57-.58-.14-.25-.21-.55-.21-.92,0-.35.04-.62.13-.83s.21-.38.37-.53c.16-.15.35-.28.57-.42-.22-.12-.4-.26-.54-.39-.14-.14-.25-.31-.31-.5s-.1-.44-.1-.72c0-.42.11-.76.32-1.03.21-.26.51-.46.88-.58.38-.12.81-.19,1.3-.19s.93.06,1.31.18c.38.12.69.31.9.58s.33.62.33,1.05c0,.29-.03.54-.1.73-.07.2-.17.36-.32.5-.15.14-.34.27-.58.39.24.11.44.24.61.38.16.14.29.32.37.52.08.21.12.47.12.8,0,.37-.07.69-.21.94-.14.25-.33.45-.58.6-.25.15-.53.25-.85.32s-.66.09-1.02.09ZM462.13,38.21c.24,0,.46-.03.64-.09.18-.06.33-.16.43-.3.1-.14.15-.34.15-.59,0-.19-.04-.35-.11-.48-.07-.13-.17-.23-.3-.32s-.27-.15-.42-.2h-.78c-.24.08-.43.2-.58.36-.14.16-.21.39-.21.67,0,.23.05.41.15.55.1.14.24.24.42.3.18.06.38.09.61.09ZM461.74,35.19h.78c.23-.09.41-.21.54-.35s.2-.34.2-.57c0-.31-.09-.54-.29-.67-.19-.14-.47-.21-.83-.21s-.62.07-.81.21c-.19.14-.28.36-.28.67,0,.24.06.44.18.58.12.15.29.26.51.35Z"/>
    <path class="st0" d="M465.65,39.23v-1.12l1.57-1.61c.3-.3.55-.57.77-.8.21-.23.38-.45.49-.66.11-.21.17-.43.17-.66,0-.35-.1-.58-.29-.7-.19-.12-.51-.18-.93-.18-.17,0-.36.01-.57.03-.21.02-.41.04-.6.07-.19.03-.35.06-.49.08l-.07-1.1c.15-.04.34-.09.57-.13.23-.05.47-.09.74-.13s.53-.06.78-.06c.75,0,1.32.16,1.71.47.39.32.59.8.59,1.46,0,.36-.05.68-.15.96-.1.28-.26.54-.47.79s-.49.53-.84.83l-1.37,1.31h2.92v1.16h-4.53Z"/>
    <path class="st0" d="M471.36,37.06v-1.18h3.14v1.18h-3.14Z"/>
    <path class="st0" d="M480.23,39.34c-.26,0-.55-.02-.86-.05s-.61-.07-.91-.11c-.29-.04-.54-.08-.75-.12l.09-1.13c.21.03.46.06.75.09s.57.06.85.08.52.03.73.03c.26,0,.48-.03.64-.1s.29-.17.37-.32c.08-.14.12-.32.12-.54,0-.18-.04-.32-.11-.43-.07-.11-.2-.19-.39-.26s-.45-.13-.78-.19c-.42-.08-.77-.17-1.06-.27-.29-.1-.54-.23-.72-.39-.19-.16-.32-.35-.41-.6-.09-.24-.13-.54-.13-.88,0-.54.1-.96.3-1.27.2-.31.49-.53.86-.66.37-.13.81-.2,1.32-.2.23,0,.49.01.78.04s.58.05.87.09c.29.03.53.07.73.11l-.06,1.14c-.21-.03-.45-.05-.72-.08-.27-.02-.54-.05-.81-.07-.27-.02-.49-.03-.68-.03-.26,0-.47.03-.64.08-.17.05-.3.14-.38.26-.08.12-.12.27-.12.45,0,.21.04.37.12.48.08.11.22.2.42.27s.47.14.82.22c.41.09.76.19,1.04.29s.52.23.7.37.31.33.39.56c.08.23.12.52.12.86,0,.55-.1,1-.3,1.33s-.48.58-.85.73c-.37.15-.82.22-1.33.22Z"/>
    <path class="st0" d="M484.99,39.34c-.54,0-.95-.14-1.22-.41s-.41-.69-.41-1.24c0-.39.07-.69.21-.91s.34-.38.62-.48.61-.16,1-.18l1.27-.11v-.31c0-.25-.06-.42-.19-.52-.12-.1-.31-.15-.55-.15-.19,0-.42,0-.67.02s-.5.03-.75.05c-.25.02-.46.04-.64.06l-.04-.98c.18-.04.4-.08.65-.13.25-.04.52-.08.79-.11.28-.03.53-.04.77-.04.44,0,.81.06,1.11.17.3.11.52.29.67.55.15.25.23.59.23,1.02v2.38c.01.1.07.17.16.22.09.05.19.09.31.11l-.03.96c-.11,0-.22,0-.33,0-.11,0-.21,0-.31,0-.1,0-.18-.01-.26-.03-.16-.02-.3-.06-.41-.12-.11-.06-.21-.13-.28-.2-.11.05-.26.1-.45.17-.19.06-.39.11-.61.16-.22.04-.44.06-.66.06ZM485.32,38.31c.13,0,.27-.01.42-.04s.28-.06.41-.1.23-.07.31-.11v-1.19l-1.06.09c-.23.02-.39.09-.49.2-.1.11-.15.28-.15.48s.05.37.14.49c.09.12.24.18.43.18Z"/>
    <path class="st0" d="M490.68,39.34c-.45,0-.8-.1-1.04-.29-.25-.19-.42-.48-.52-.87s-.15-.88-.15-1.46v-2.71h1.38v2.65c0,.37.02.66.06.87s.12.37.23.46c.12.09.29.13.51.13s.42-.03.6-.08c.19-.06.34-.11.45-.17v-3.86h1.38v5.21h-1.37v-.32c-.24.13-.47.24-.7.32-.23.08-.51.12-.83.12Z"/>
    <path class="st0" d="M496.47,39.34c-.25,0-.48-.03-.69-.09-.21-.06-.39-.15-.54-.28-.16-.13-.29-.3-.39-.5-.11-.21-.19-.46-.24-.76-.06-.3-.08-.65-.08-1.05,0-.6.07-1.1.22-1.51.15-.41.39-.72.71-.93.33-.21.76-.32,1.3-.32.1,0,.22,0,.36.02.14.01.27.02.41.04.13.02.24.03.32.05v-2.12h1.39v7.34h-1.37v-.3c-.11.05-.23.12-.39.18-.16.07-.32.12-.49.17s-.34.07-.51.07ZM496.83,38.18c.12,0,.25-.01.38-.04.13-.03.25-.06.36-.1s.21-.08.27-.11v-2.79c-.06-.01-.14-.03-.25-.04-.1,0-.21-.02-.32-.03-.11,0-.21-.02-.3-.02-.27,0-.48.06-.63.19-.15.12-.25.31-.32.54-.06.24-.09.53-.09.87,0,.3.02.54.06.74.04.2.1.35.18.47.08.11.17.2.29.24.11.05.23.07.36.07Z"/>
    <path class="st0" d="M500.38,33.18v-1.18h1.39v1.18h-1.39ZM500.38,39.23v-5.21h1.38v5.21h-1.38Z"/>
    <path class="st0" d="M504.73,39.23l1.81-7.09h2.5l1.8,7.09h-1.43l-.39-1.43h-2.48l-.37,1.43h-1.42ZM506.75,36.64h2.05l-.8-3.34h-.44l-.81,3.34Z"/>
    <path class="st0" d="M511.53,39.23v-5.21h1.38v.61c.12-.09.26-.19.44-.29.17-.1.36-.19.57-.28s.4-.14.59-.17v1.34c-.18.03-.37.08-.57.14s-.39.14-.57.21c-.18.08-.33.15-.45.21v3.44h-1.38Z"/>
    <path class="st0" d="M516.58,39.34c-.54,0-.95-.14-1.22-.41s-.41-.69-.41-1.24c0-.39.07-.69.21-.91s.34-.38.62-.48.61-.16,1-.18l1.27-.11v-.31c0-.25-.06-.42-.19-.52-.12-.1-.31-.15-.55-.15-.19,0-.42,0-.67.02s-.5.03-.75.05c-.25.02-.46.04-.64.06l-.04-.98c.18-.04.4-.08.65-.13.25-.04.52-.08.79-.11.28-.03.53-.04.77-.04.44,0,.81.06,1.11.17.3.11.52.29.67.55.15.25.23.59.23,1.02v2.38c.01.1.07.17.16.22.09.05.19.09.31.11l-.03.96c-.11,0-.22,0-.33,0-.11,0-.21,0-.31,0-.1,0-.18-.01-.26-.03-.16-.02-.3-.06-.41-.12-.11-.06-.21-.13-.28-.2-.11.05-.26.1-.45.17-.19.06-.39.11-.61.16-.22.04-.44.06-.66.06ZM516.91,38.31c.13,0,.27-.01.42-.04s.28-.06.41-.1.23-.07.31-.11v-1.19l-1.06.09c-.23.02-.39.09-.49.2-.1.11-.15.28-.15.48s.05.37.14.49c.09.12.24.18.43.18Z"/>
    <path class="st0" d="M522.72,39.34c-.17,0-.38,0-.63-.02-.25-.01-.5-.04-.76-.06-.26-.03-.49-.05-.69-.07v-7.3h1.39v2.29c.1-.04.23-.08.38-.12.15-.04.31-.08.48-.11s.33-.05.47-.05c.48,0,.87.1,1.16.3s.49.49.62.88.19.88.19,1.46c0,.69-.08,1.24-.23,1.66-.16.41-.42.71-.8.88s-.9.26-1.57.26ZM522.73,38.18c.34,0,.59-.06.76-.18s.28-.3.34-.54.09-.54.09-.89-.03-.65-.08-.87c-.06-.22-.15-.38-.28-.48-.13-.1-.31-.15-.53-.15-.11,0-.23.01-.35.04-.12.02-.24.05-.36.08-.11.03-.21.06-.29.09v2.87c.1,0,.22.01.36.03s.25.02.34.02Z"/>
    <path class="st0" d="M526.29,33.18v-1.18h1.39v1.18h-1.39ZM526.29,39.23v-5.21h1.38v5.21h-1.38Z"/>
    <path class="st0" d="M530.18,39.34c-.54,0-.95-.14-1.22-.41s-.41-.69-.41-1.24c0-.39.07-.69.21-.91s.34-.38.62-.48.61-.16,1-.18l1.27-.11v-.31c0-.25-.06-.42-.19-.52-.12-.1-.31-.15-.55-.15-.19,0-.42,0-.67.02s-.5.03-.75.05c-.25.02-.46.04-.64.06l-.04-.98c.18-.04.4-.08.65-.13.25-.04.52-.08.79-.11.28-.03.53-.04.77-.04.44,0,.81.06,1.11.17.3.11.52.29.67.55.15.25.23.59.23,1.02v2.38c.01.1.07.17.16.22.09.05.19.09.31.11l-.03.96c-.11,0-.22,0-.33,0-.11,0-.21,0-.31,0-.1,0-.18-.01-.26-.03-.16-.02-.3-.06-.41-.12-.11-.06-.21-.13-.28-.2-.11.05-.26.1-.45.17-.19.06-.39.11-.61.16-.22.04-.44.06-.66.06ZM530.51,38.31c.13,0,.27-.01.42-.04s.28-.06.41-.1.23-.07.31-.11v-1.19l-1.06.09c-.23.02-.39.09-.49.2-.1.11-.15.28-.15.48s.05.37.14.49c.09.12.24.18.43.18Z"/>
  </g>
  <g>
    <g>
      <path class="st0" d="M18.25,25.51c-.51,0-.93-.08-1.26-.24s-.57-.41-.73-.74c-.16-.33-.24-.75-.24-1.25s.08-.92.24-1.26c.16-.34.4-.59.73-.77s.75-.26,1.26-.26h2.03v3.95h-1.21v-3.17l.3.26h-1.12c-.25,0-.44.03-.59.08-.15.06-.26.17-.33.35-.07.18-.1.45-.1.8s.03.6.09.77c.06.17.17.28.32.34s.35.08.61.08h2.98v1.04h-2.98ZM16.91,20.17v-1.03h1.16v1.03h-1.16ZM18.54,20.17v-1.03h1.16v1.03h-1.16ZM21.23,25.51v-1.04s.06.01.09.04c.02.02.04.06.05.11.02.05.03.1.03.17,0,.06,0,.13,0,.21s0,.15,0,.22c0,.07-.02.12-.03.17s-.03.08-.05.1c-.02.02-.05.04-.09.04Z"/>
      <path class="st0" d="M21.23,25.51s-.06-.01-.09-.04c-.02-.02-.04-.06-.05-.1-.01-.04-.03-.1-.03-.17,0-.07,0-.14,0-.22,0-.11,0-.2.02-.27.01-.07.03-.13.06-.18s.06-.07.1-.07v1.04ZM21.23,25.51v-1.04h2.13l-.7.58v-4.06h1.2v4.52h-2.63ZM21.55,27.43v-1.03h1.16v1.03h-1.16ZM23.19,27.43v-1.03h1.16v1.03h-1.16Z"/>
      <path class="st0" d="M24.87,25.51v-1.04h3.27l-.82.71v-1.51c0-.43-.04-.76-.13-.99-.09-.23-.23-.4-.43-.5-.2-.1-.48-.14-.82-.14h-.73v-1.04h.73c.55,0,1.02.09,1.41.27.39.18.68.47.88.86.2.39.3.91.3,1.54v1.84h-3.65Z"/>
      <path class="st0" d="M31.17,27.75c-.22,0-.45-.02-.7-.05s-.5-.08-.78-.13l.18-.96c.3.04.56.06.77.08.21.02.39.03.53.03.43,0,.74-.08.94-.23s.29-.39.29-.7v-3.95l.3.22h-1.12c-.25,0-.44.03-.59.08-.15.06-.26.17-.33.35-.07.18-.1.45-.1.8s.03.6.09.77c.06.17.17.28.32.34s.35.08.61.08h.83v1.04h-.83c-.51,0-.93-.08-1.26-.24s-.57-.41-.73-.74c-.16-.33-.24-.75-.24-1.25s.08-.92.24-1.26c.16-.34.4-.59.73-.77s.75-.26,1.26-.26h2.03v4.78c0,.41-.1.76-.3,1.06-.2.3-.48.52-.85.68-.36.16-.79.23-1.28.23ZM33.6,25.51v-1.04h.94v1.04h-.94ZM34.55,25.51v-1.04s.06.01.09.04c.02.02.04.06.05.11.02.05.03.1.03.17,0,.06,0,.13,0,.21s0,.15,0,.22c0,.07-.02.12-.03.17s-.03.08-.05.1c-.02.02-.05.04-.09.04Z"/>
      <path class="st0" d="M34.55,25.51s-.06-.01-.09-.04c-.02-.02-.04-.06-.05-.1-.01-.04-.03-.1-.03-.17,0-.07,0-.14,0-.22,0-.11,0-.2.02-.27.01-.07.03-.13.06-.18s.06-.07.1-.07v1.04ZM34.55,25.51v-1.04h1.91c.26,0,.51-.05.75-.15.24-.1.46-.23.66-.4s.38-.35.53-.55c.15-.2.27-.41.36-.62s.13-.41.13-.59v-.58l.58.95c-.31-.17-.63-.29-.95-.38-.32-.08-.63-.13-.93-.13s-.6.04-.92.13-.64.21-.95.38l.58-.95v.58c0,.19.04.38.13.59.09.21.21.42.36.62.15.2.33.38.53.55s.43.3.67.4.49.15.74.15h1.85v1.04h-1.48c-.47,0-.91-.08-1.31-.22-.41-.15-.78-.35-1.11-.6-.33-.25-.61-.52-.85-.82-.24-.3-.42-.59-.54-.89s-.19-.57-.19-.81v-.51c.26-.14.53-.26.82-.36.29-.1.58-.17.87-.22s.56-.08.81-.08.52.03.81.08c.29.05.58.12.87.22.29.1.57.22.82.36v.51c0,.25-.06.52-.19.81s-.31.59-.54.89c-.24.3-.52.57-.85.82-.33.25-.7.45-1.11.6-.41.15-.85.22-1.31.22h-1.53ZM40.56,25.51v-1.04s.07.01.09.04c.02.02.04.06.05.11.01.05.02.1.03.17,0,.06,0,.13,0,.21s0,.15,0,.22c0,.07-.02.12-.03.17-.01.04-.03.08-.05.1-.02.02-.05.04-.09.04Z"/>
      <path class="st0" d="M40.56,25.51s-.06-.01-.09-.04c-.02-.02-.04-.06-.05-.1-.01-.04-.03-.1-.03-.17,0-.07,0-.14,0-.22,0-.11,0-.2.02-.27.01-.07.03-.13.06-.18s.06-.07.1-.07v1.04ZM40.56,25.51v-1.04h1.31l-.27.28v-2.83h1.21v3.6h-2.25ZM42.81,25.51v-1.04h.73c.19,0,.34-.03.44-.09.1-.06.17-.17.21-.35s.06-.44.06-.8v-1.77h1.21v1.77c0,.53-.07.97-.2,1.31-.13.34-.34.58-.63.74-.28.16-.65.23-1.09.23h-.73ZM45.85,25.51c-.25,0-.49-.05-.73-.14-.24-.09-.47-.23-.67-.42l.74-.77c.12.1.23.17.34.21s.21.07.33.07h1.68l-.62.57v-2c0-.1-.01-.24-.03-.44-.02-.2-.05-.42-.09-.67s-.09-.5-.14-.76l1.19-.18c.04.22.08.46.12.72.04.27.07.52.1.76.03.24.04.42.04.56v2.47h-2.26ZM48.11,25.51v-1.04h.95v1.04h-.95ZM49.06,25.51v-1.04s.06.01.08.04c.02.02.04.06.05.11.01.05.02.1.03.17,0,.06.01.13.01.21s0,.15-.01.22c0,.07-.02.12-.03.17-.01.04-.03.08-.05.1-.02.02-.05.04-.08.04Z"/>
      <path class="st0" d="M49.06,25.51s-.06-.01-.09-.04c-.02-.02-.04-.06-.05-.1-.01-.04-.03-.1-.03-.17,0-.07,0-.14,0-.22,0-.11,0-.2.02-.27.01-.07.03-.13.06-.18s.06-.07.1-.07v1.04ZM49.06,25.51v-1.04h1.02v1.04h-1.02ZM50.08,25.51v-6.36h1.21v6.36h-1.21Z"/>
      <path class="st0" d="M52.73,25.51v-6.36h1.2v6.36h-1.2Z"/>
      <path class="st0" d="M59.29,25.51c-.51,0-.93-.08-1.26-.24s-.57-.41-.73-.74c-.16-.33-.24-.75-.24-1.25s.08-.92.24-1.26c.16-.34.4-.59.73-.77s.75-.26,1.26-.26h2.03v3.95h-1.21v-3.17l.3.26h-1.12c-.25,0-.44.03-.59.08-.15.06-.26.17-.33.35-.07.18-.1.45-.1.8s.03.6.09.77c.06.17.17.28.32.34s.35.08.61.08h2.98v1.04h-2.98ZM57.95,20.17v-1.03h1.16v1.03h-1.16ZM59.58,20.17v-1.03h1.16v1.03h-1.16ZM62.27,25.51v-1.04s.06.01.09.04c.02.02.04.06.05.11.02.05.03.1.03.17,0,.06,0,.13,0,.21s0,.15,0,.22c0,.07-.02.12-.03.17s-.03.08-.05.1c-.02.02-.05.04-.09.04Z"/>
      <path class="st0" d="M62.27,25.51s-.06-.01-.09-.04c-.02-.02-.04-.06-.05-.1-.01-.04-.03-.1-.03-.17,0-.07,0-.14,0-.22,0-.11,0-.2.02-.27.01-.07.03-.13.06-.18s.06-.07.1-.07v1.04ZM62.27,25.51v-1.04h2.13l-.7.58v-4.06h1.2v4.52h-2.63ZM62.59,27.43v-1.03h1.16v1.03h-1.16ZM64.23,27.43v-1.03h1.16v1.03h-1.16ZM64.89,25.51v-1.04h1.12v1.04h-1.12ZM66.02,25.51v-1.04s.06.01.08.04c.02.02.04.06.05.11.01.05.02.1.03.17,0,.06.01.13.01.21s0,.15-.01.22c0,.07-.02.12-.03.17-.01.04-.03.08-.05.1-.02.02-.05.04-.09.04Z"/>
      <path class="st0" d="M66.02,25.51s-.06-.01-.09-.04c-.02-.02-.04-.06-.05-.1-.01-.04-.03-.1-.03-.17,0-.07,0-.14,0-.22,0-.11,0-.2.02-.27.01-.07.03-.13.06-.18s.06-.07.1-.07v1.04ZM66.02,25.51v-1.04h1.65l-.7.58v-4.06h1.21v4.52h-2.15ZM66.96,27.43v-1.03h1.21v1.03h-1.21Z"/>
      <path class="st0" d="M69.17,27.75c-.08,0-.16,0-.25,0-.09,0-.18-.01-.28-.03l.04-1.03c.1,0,.19.01.27.02.09,0,.15,0,.19,0,.23,0,.42-.09.56-.28.14-.19.21-.45.21-.78v-4.65h1.21v4.65c0,.41-.08.77-.25,1.09-.17.32-.39.57-.69.74-.29.18-.64.27-1.03.27ZM70.91,25.51v-1.04h1.16v1.04h-1.16ZM72.08,25.51v-1.04s.06.01.09.04c.02.02.04.06.05.11.01.05.03.1.03.17,0,.06,0,.13,0,.21s0,.15,0,.22c0,.07-.02.12-.03.17-.02.04-.03.08-.05.1-.02.02-.05.04-.09.04Z"/>
      <path class="st0" d="M72.08,25.51s-.06-.01-.09-.04c-.02-.02-.04-.06-.05-.1-.01-.04-.03-.1-.03-.17,0-.07,0-.14,0-.22,0-.11,0-.2.02-.27.01-.07.03-.13.06-.18s.06-.07.1-.07v1.04ZM72.08,25.51v-1.04h1.91c.26,0,.51-.05.75-.15.24-.1.46-.23.66-.4s.38-.35.53-.55c.15-.2.27-.41.36-.62s.13-.41.13-.59v-.58l.58.95c-.31-.17-.63-.29-.95-.38-.32-.08-.63-.13-.93-.13s-.6.04-.92.13-.64.21-.95.38l.58-.95v.58c0,.19.04.38.13.59.09.21.21.42.36.62.15.2.33.38.53.55s.43.3.67.4.49.15.74.15h1.85v1.04h-1.48c-.47,0-.91-.08-1.31-.22-.41-.15-.78-.35-1.11-.6-.33-.25-.61-.52-.85-.82-.24-.3-.42-.59-.54-.89s-.19-.57-.19-.81v-.51c.26-.14.53-.26.82-.36.29-.1.58-.17.87-.22s.56-.08.81-.08.52.03.81.08c.29.05.58.12.87.22.29.1.57.22.82.36v.51c0,.25-.06.52-.19.81s-.31.59-.54.89c-.24.3-.52.57-.85.82-.33.25-.7.45-1.11.6-.41.15-.85.22-1.31.22h-1.53ZM78.09,25.51v-1.04s.07.01.09.04c.02.02.04.06.05.11.01.05.02.1.03.17,0,.06,0,.13,0,.21s0,.15,0,.22c0,.07-.02.12-.03.17-.01.04-.03.08-.05.1-.02.02-.05.04-.09.04Z"/>
      <path class="st0" d="M78.09,25.51s-.06-.01-.09-.04c-.02-.02-.04-.06-.05-.1-.01-.04-.03-.1-.03-.17,0-.07,0-.14,0-.22,0-.11,0-.2.02-.27.01-.07.03-.13.06-.18s.06-.07.1-.07v1.04ZM78.09,25.51v-1.04h1.02v1.04h-1.02ZM79.1,25.51v-6.36h1.21v6.36h-1.21Z"/>
      <path class="st0" d="M81.75,25.51v-6.36h1.2v6.36h-1.2Z"/>
      <path class="st0" d="M88.31,25.51c-.51,0-.93-.08-1.26-.24s-.57-.41-.73-.74c-.16-.33-.24-.75-.24-1.25s.08-.92.24-1.26c.16-.34.4-.59.73-.77s.75-.26,1.26-.26h2.03v3.95h-1.21v-3.17l.3.26h-1.12c-.25,0-.44.03-.59.08-.15.06-.26.17-.33.35-.07.18-.1.45-.1.8s.03.6.09.77c.06.17.17.28.32.34s.35.08.61.08h2.98v1.04h-2.98ZM86.97,20.17v-1.03h1.16v1.03h-1.16ZM88.61,20.17v-1.03h1.16v1.03h-1.16ZM91.29,25.51v-1.04s.06.01.09.04c.02.02.04.06.05.11.02.05.03.1.03.17,0,.06,0,.13,0,.21s0,.15,0,.22c0,.07-.02.12-.03.17s-.03.08-.05.1c-.02.02-.05.04-.09.04Z"/>
      <path class="st0" d="M91.29,25.51s-.06-.01-.09-.04c-.02-.02-.04-.06-.05-.1-.01-.04-.03-.1-.03-.17,0-.07,0-.14,0-.22,0-.11,0-.2.02-.27.01-.07.03-.13.06-.18s.06-.07.1-.07v1.04ZM91.29,25.51v-1.04h4.52l-.4.32v-1.22c0-.31-.03-.56-.1-.75-.07-.19-.17-.32-.3-.4-.14-.08-.3-.13-.51-.13h-1.97l-.75-1.08.46-.86c.05-.1.11-.21.18-.33.07-.12.15-.26.26-.43s.25-.38.41-.63l1.01.57c-.16.23-.28.43-.38.58-.1.15-.18.29-.24.4-.07.11-.13.23-.18.34l-.36.67-.18-.27h1.74c.38,0,.71.06.98.19s.49.3.65.52c.16.22.29.47.36.75.08.28.12.56.12.86v1.94h-5.33ZM96.62,25.51v-1.04h.94v1.04h-.94ZM97.56,25.51v-1.04s.07.01.09.04c.02.02.04.06.05.11.01.05.02.1.03.17,0,.06,0,.13,0,.21s0,.15,0,.22c0,.07-.02.12-.03.17-.01.04-.03.08-.05.1-.02.02-.05.04-.09.04Z"/>
      <path class="st0" d="M97.56,25.51s-.06-.01-.09-.04c-.02-.02-.04-.06-.05-.1-.01-.04-.03-.1-.03-.17,0-.07,0-.14,0-.22,0-.11,0-.2.02-.27.01-.07.03-.13.06-.18s.06-.07.1-.07v1.04ZM97.56,25.51v-1.04h1.02v1.04h-1.02ZM98.58,25.51v-6.36h1.21v6.36h-1.21ZM99.79,25.51v-1.04h.94v1.04h-.94ZM100.73,25.51v-1.04s.07.01.09.04c.02.02.04.06.05.11.01.05.02.1.03.17,0,.06,0,.13,0,.21s0,.15,0,.22c0,.07-.02.12-.03.17-.01.04-.03.08-.05.1-.02.02-.05.04-.09.04Z"/>
      <path class="st0" d="M100.73,25.51s-.06-.01-.09-.04c-.02-.02-.04-.06-.05-.1-.01-.04-.03-.1-.03-.17,0-.07,0-.14,0-.22,0-.11,0-.2.02-.27.01-.07.03-.13.06-.18s.06-.07.1-.07v1.04ZM100.73,25.51v-1.04h4.67l-.55.47v-1.66c0-.32-.04-.58-.11-.76-.07-.18-.2-.31-.37-.39-.18-.07-.42-.11-.73-.11-.25,0-.49.02-.72.05-.24.03-.42.08-.55.13l.75-.7c-.04.14-.07.31-.1.52-.03.21-.06.43-.09.67s-.04.47-.04.7c0,.21.01.43.03.66.02.23.04.43.07.6.03.17.05.29.07.36l-1.14.31c-.02-.08-.05-.22-.09-.41-.04-.19-.07-.42-.09-.68-.03-.26-.04-.54-.04-.84s.01-.59.04-.87c.03-.28.06-.53.1-.76.04-.23.08-.41.11-.54.14-.05.37-.11.68-.16.31-.05.64-.08,1.02-.08.54,0,.99.08,1.35.23.36.15.62.39.8.73.18.34.27.79.27,1.36v2.22h-5.32ZM106.05,25.51v-1.04h.95v1.04h-.95ZM107,25.51v-1.04s.06.01.08.04c.02.02.04.06.05.11.01.05.02.1.03.17,0,.06.01.13.01.21s0,.15-.01.22c0,.07-.02.12-.03.17-.01.04-.03.08-.05.1-.02.02-.05.04-.08.04Z"/>
      <path class="st0" d="M107,25.51s-.06-.01-.09-.04c-.02-.02-.04-.06-.05-.1-.01-.04-.03-.1-.03-.17,0-.07,0-.14,0-.22,0-.11,0-.2.02-.27.01-.07.03-.13.06-.18s.06-.07.1-.07v1.04ZM107,25.51v-1.04h4.67l-.55.47v-1.66c0-.32-.04-.58-.11-.76-.07-.18-.2-.31-.37-.39-.18-.07-.42-.11-.73-.11-.25,0-.49.02-.72.05-.24.03-.42.08-.55.13l.75-.7c-.04.14-.07.31-.1.52-.03.21-.06.43-.09.67s-.04.47-.04.7c0,.21.01.43.03.66.02.23.04.43.07.6.03.17.05.29.07.36l-1.14.31c-.02-.08-.05-.22-.09-.41-.04-.19-.07-.42-.09-.68-.03-.26-.04-.54-.04-.84s.01-.59.04-.87c.03-.28.06-.53.1-.76.04-.23.08-.41.11-.54.14-.05.37-.11.68-.16.31-.05.64-.08,1.02-.08.54,0,.99.08,1.35.23.36.15.62.39.8.73.18.34.27.79.27,1.36v2.22h-5.32ZM112.32,25.51v-1.04h.95v1.04h-.95ZM113.28,25.51v-1.04s.06.01.08.04c.02.02.04.06.05.11.01.05.02.1.03.17,0,.06.01.13.01.21s0,.15-.01.22c0,.07-.02.12-.03.17-.01.04-.03.08-.05.1-.02.02-.05.04-.08.04Z"/>
      <path class="st0" d="M113.28,25.51s-.06-.01-.09-.04c-.02-.02-.04-.06-.05-.1-.01-.04-.03-.1-.03-.17,0-.07,0-.14,0-.22,0-.11,0-.2.02-.27.01-.07.03-.13.06-.18s.06-.07.1-.07v1.04ZM113.28,25.51v-1.04h1.02v1.04h-1.02ZM114.29,25.51v-6.36h1.21v6.36h-1.21Z"/>
      <path class="st0" d="M116.94,25.51v-6.36h1.2v6.36h-1.2Z"/>
      <path class="st0" d="M121.38,23.69v-1.06h4.5v1.06h-4.5Z"/>
      <path class="st0" d="M129.29,25.51v-5.94h1.2v5.94h-1.2Z"/>
      <path class="st0" d="M132.47,25.51v-5.94h3.67v1.04h-3.28l.8-.7v5.6h-1.2Z"/>
      <path class="st0" d="M138.62,19.57h1.39l2.01,5.94h-1.22l-1.57-5.41.69.51h-1.3l.8-.49-1.52,5.39h-1.22l1.94-5.94Z"/>
      <path class="st0" d="M143.22,25.51v-5.93h1.21v5.93h-1.21ZM144.77,22.81c-.27,0-.53-.04-.78-.13s-.46-.21-.62-.37l.82-.76c.08.08.17.13.26.17.09.04.2.05.32.05s.22-.02.3-.07c.08-.05.14-.13.17-.23.04-.11.05-.26.05-.46v-1.43h1.2v1.43c0,.38-.07.7-.2.97-.13.27-.33.48-.58.62-.25.14-.57.21-.93.21ZM146.83,22.81c-.3,0-.58-.05-.85-.16-.27-.11-.49-.25-.67-.45l.88-.71c.09.1.18.17.28.21s.22.07.36.07c.13,0,.23-.02.31-.07.08-.05.13-.13.17-.23.03-.11.05-.26.05-.46v-1.43h1.2v1.43c0,.38-.07.7-.2.97s-.33.48-.58.62c-.26.14-.57.21-.93.21Z"/>
      <path class="st0" d="M151.56,25.51v-5.69l.94.79h-3.2v-1.04h3.46v5.94h-1.2Z"/>
      <path class="st0" d="M158.82,27.75c-.39,0-.75-.06-1.08-.17s-.62-.26-.87-.46-.44-.43-.58-.69c-.14-.27-.21-.56-.21-.87,0-.11,0-.26.03-.44.02-.18.04-.39.08-.62.03-.23.07-.48.11-.75l1.19.16c-.06.38-.11.71-.14,1.01s-.05.5-.05.62c0,.23.06.43.19.6s.3.31.54.41c.23.1.5.15.82.15h2.55c.39,0,.68-.1.87-.29.19-.2.29-.49.29-.89,0-.2-.03-.35-.1-.46-.07-.11-.18-.21-.35-.29s-.41-.17-.73-.27c-.36-.11-.67-.22-.94-.32-.27-.1-.49-.21-.67-.34-.17-.12-.3-.27-.39-.45-.09-.17-.13-.39-.13-.66,0-.4.09-.72.26-.98.17-.26.42-.45.75-.58s.71-.19,1.15-.19c.2,0,.45.01.73.04.28.03.66.08,1.12.14l-.13,1c-.43-.05-.79-.08-1.06-.11-.28-.02-.51-.04-.7-.04-.22,0-.4.02-.54.07-.13.04-.23.11-.29.21-.06.09-.09.21-.09.36,0,.13.03.23.09.31.06.08.15.15.27.21.12.06.26.11.41.16.16.04.33.1.51.16.33.1.62.2.87.32s.46.25.63.4c.17.15.3.33.39.54.09.21.13.47.13.76,0,.43-.1.81-.29,1.14-.19.33-.46.59-.81.78-.35.19-.77.28-1.25.28h-2.55ZM158.51,29.67v-1.03h1.16v1.03h-1.16ZM160.15,29.67v-1.03h1.16v1.03h-1.16Z"/>
      <path class="st0" d="M164.62,25.51v-1.04h3.27l-.82.71v-1.51c0-.43-.04-.76-.13-.99s-.23-.4-.43-.5-.48-.14-.82-.14h-.73v-1.04h.73c.55,0,1.02.09,1.41.27.39.18.68.47.88.86.2.39.3.91.3,1.54v1.84h-3.65ZM168.28,25.51v-1.04h.95v1.04h-.95ZM169.22,25.51v-1.04s.07.01.09.04c.02.02.04.06.05.11.01.05.02.1.03.17,0,.06,0,.13,0,.21s0,.15,0,.22c0,.07-.01.12-.03.17-.01.04-.03.08-.05.1-.02.02-.05.04-.09.04Z"/>
      <path class="st0" d="M169.22,25.51s-.06-.01-.09-.04c-.02-.02-.04-.06-.05-.1-.01-.04-.03-.1-.03-.17,0-.07,0-.14,0-.22,0-.11,0-.2.02-.27.01-.07.03-.13.06-.18s.06-.07.1-.07v1.04ZM169.22,25.51v-1.04h2.13l-.7.58v-4.06h1.2v4.52h-2.63ZM169.55,27.43v-1.03h1.16v1.03h-1.16ZM171.18,27.43v-1.03h1.16v1.03h-1.16Z"/>
      <path class="st0" d="M173.43,27.75c-.08,0-.16,0-.25,0s-.18-.01-.28-.03l.05-1.03c.1,0,.19.01.27.02.09,0,.15,0,.19,0,.23,0,.42-.09.56-.28.14-.19.21-.45.21-.78v-4.65h1.21v4.65c0,.41-.08.77-.25,1.09-.17.32-.39.57-.69.74-.29.18-.64.27-1.03.27ZM175.4,22.94v-1.05h1.89v1.05h-1.89ZM177.29,25.51v-4.52h1.21v4.06l-.7-.58h1.65v1.04h-2.15ZM177.29,27.43v-1.03h1.21v1.03h-1.21ZM179.44,25.51v-1.04s.07.01.09.04c.02.02.04.06.05.11.01.05.02.1.03.17,0,.06,0,.13,0,.21s0,.15,0,.22c0,.07-.01.12-.03.17-.01.04-.03.08-.05.1-.02.02-.05.04-.09.04Z"/>
      <path class="st0" d="M179.44,25.51s-.06-.01-.09-.04c-.02-.02-.04-.06-.05-.1-.01-.04-.03-.1-.03-.17,0-.07,0-.14,0-.22,0-.11,0-.2.02-.27.01-.07.03-.13.06-.18s.06-.07.1-.07v1.04ZM179.44,25.51v-1.04h1.02v1.04h-1.02ZM180.45,25.51v-6.36h1.21v6.36h-1.21Z"/>
      <path class="st0" d="M183.1,25.51v-6.36h1.2v6.36h-1.2Z"/>
      <path class="st0" d="M187.41,27.75c-.08,0-.16,0-.25,0s-.18-.01-.28-.03l.05-1.03c.1,0,.19.01.27.02.09,0,.15,0,.19,0,.23,0,.42-.09.56-.28.14-.19.21-.45.21-.78v-4.65h1.21v4.65c0,.41-.08.77-.25,1.09-.17.32-.39.57-.69.74-.29.18-.64.27-1.03.27ZM188.17,20.17v-1.03h1.21v1.03h-1.21ZM189.16,25.51v-1.04h1.16v1.04h-1.16ZM190.32,25.51v-1.04s.06.01.09.04c.02.02.04.06.05.11.01.05.03.1.03.17,0,.06,0,.13,0,.21s0,.15,0,.22c0,.07-.02.12-.03.17-.02.04-.03.08-.05.1-.02.02-.05.04-.09.04Z"/>
      <path class="st0" d="M190.32,25.51s-.06-.01-.09-.04c-.02-.02-.04-.06-.05-.1-.01-.04-.03-.1-.03-.17,0-.07,0-.14,0-.22,0-.11,0-.2.02-.27.01-.07.03-.13.06-.18s.06-.07.1-.07v1.04ZM190.32,25.51v-1.04h4.67l-.55.47v-1.66c0-.32-.04-.58-.11-.76-.07-.18-.2-.31-.37-.39-.18-.07-.42-.11-.73-.11-.25,0-.49.02-.72.05s-.42.08-.55.13l.75-.7c-.04.14-.07.31-.1.52s-.06.43-.09.67c-.02.24-.04.47-.04.7,0,.21,0,.43.03.66.02.23.04.43.07.6.03.17.05.29.07.36l-1.14.31c-.02-.08-.05-.22-.09-.41-.04-.19-.07-.42-.09-.68-.03-.26-.04-.54-.04-.84s.01-.59.04-.87c.03-.28.06-.53.1-.76.04-.23.08-.41.11-.54.14-.05.37-.11.67-.16.31-.05.65-.08,1.02-.08.54,0,.99.08,1.35.23.36.15.62.39.8.73.18.34.27.79.27,1.36v2.22h-5.32Z"/>
      <path class="st0" d="M196.61,27.75c-.08,0-.16,0-.25,0s-.18-.01-.28-.03l.05-1.03c.1,0,.19.01.27.02.09,0,.15,0,.19,0,.23,0,.42-.09.56-.28.14-.19.21-.45.21-.78v-4.65h1.21v4.65c0,.41-.08.77-.25,1.09-.17.32-.39.57-.69.74-.29.18-.64.27-1.03.27ZM198.35,25.51v-1.04h1.16v1.04h-1.16ZM199.52,25.51v-1.04s.06.01.09.04c.02.02.04.06.05.11.01.05.03.1.03.17,0,.06,0,.13,0,.21s0,.15,0,.22c0,.07-.02.12-.03.17-.02.04-.03.08-.05.1-.02.02-.05.04-.09.04Z"/>
      <path class="st0" d="M199.52,25.51s-.06-.01-.09-.04c-.02-.02-.04-.06-.05-.1-.01-.04-.03-.1-.03-.17,0-.07,0-.14,0-.22,0-.11,0-.2.02-.27.01-.07.03-.13.06-.18s.06-.07.1-.07v1.04ZM199.52,25.51v-1.04h1.02v1.04h-1.02ZM200.53,25.51v-6.36h1.21v6.36h-1.21Z"/>
      <path class="st0" d="M203.18,25.51v-6.36h1.2v6.36h-1.2Z"/>
      <path class="st0" d="M210.25,27.75c-.39,0-.75-.06-1.08-.17s-.62-.26-.87-.46-.44-.43-.58-.69c-.14-.27-.21-.56-.21-.87,0-.11,0-.26.03-.44.02-.18.04-.39.08-.62.03-.23.07-.48.11-.75l1.19.16c-.06.38-.11.71-.14,1.01s-.05.5-.05.62c0,.23.06.43.19.6s.3.31.54.41c.23.1.5.15.82.15h2.55c.39,0,.68-.1.87-.29.19-.2.29-.49.29-.89,0-.2-.03-.35-.1-.46-.07-.11-.18-.21-.35-.29s-.41-.17-.73-.27c-.36-.11-.67-.22-.94-.32-.27-.1-.49-.21-.67-.34-.17-.12-.3-.27-.39-.45-.09-.17-.13-.39-.13-.66,0-.4.09-.72.26-.98.17-.26.42-.45.75-.58s.71-.19,1.15-.19l-.04,1.04c-.22,0-.4.02-.54.07-.13.04-.23.11-.29.21-.06.09-.09.21-.09.36,0,.13.03.23.09.31.06.08.15.15.27.21.12.06.26.11.41.16.16.04.33.1.51.16.33.1.62.2.87.32s.46.25.63.4c.17.15.3.33.39.54.09.21.13.47.13.76,0,.43-.1.81-.29,1.14-.19.33-.46.59-.81.78-.35.19-.77.28-1.25.28h-2.55ZM209.95,29.45v-1.03h1.16v1.03h-1.16ZM211.58,29.45v-1.03h1.16v1.03h-1.16ZM212.76,22.04l.04-1.04h3.01v1.04h-3.06ZM215.82,25.51v-4.52h1.2v4.52h-1.2ZM217.02,25.51v-1.04h.73c.19,0,.34-.03.45-.09.1-.06.18-.17.22-.35s.06-.44.06-.8v-1.77h1.21v1.77c0,.53-.07.97-.21,1.31-.14.34-.35.58-.63.74-.28.16-.65.23-1.09.23h-.73ZM220.06,25.51c-.25,0-.49-.05-.73-.14-.24-.09-.46-.23-.67-.42l.75-.77c.11.1.23.17.33.21.11.04.22.07.32.07h1.69l-.63.57v-2c0-.1,0-.24-.03-.44-.02-.2-.05-.42-.09-.67s-.08-.5-.13-.76l1.18-.18c.04.22.08.46.13.72.04.27.08.52.1.76.03.24.04.42.04.56v2.47h-2.26ZM222.32,25.51v-1.04h.95v1.04h-.95ZM223.28,25.51v-1.04s.07.01.09.04c.02.02.04.06.05.11.01.05.02.1.03.17,0,.06,0,.13,0,.21s0,.15,0,.22c0,.07-.01.12-.03.17-.01.04-.03.08-.05.1-.02.02-.05.04-.09.04Z"/>
      <path class="st0" d="M223.28,25.51s-.06-.01-.09-.04c-.02-.02-.04-.06-.05-.1-.01-.04-.03-.1-.03-.17,0-.07,0-.14,0-.22,0-.11,0-.2.02-.27.01-.07.03-.13.06-.18s.06-.07.1-.07v1.04ZM223.28,25.51v-1.04h2.13l-.7.58v-4.06h1.2v4.52h-2.63ZM223.6,27.43v-1.03h1.16v1.03h-1.16ZM225.24,27.43v-1.03h1.16v1.03h-1.16ZM225.9,25.51v-1.04h1.12v1.04h-1.12ZM227.03,25.51v-1.04s.06.01.08.04.04.06.05.11c.01.05.02.1.03.17,0,.06.01.13.01.21s0,.15-.01.22c0,.07-.02.12-.03.17-.01.04-.03.08-.05.1-.02.02-.05.04-.09.04Z"/>
      <path class="st0" d="M227.03,25.51s-.06-.01-.09-.04c-.02-.02-.04-.06-.05-.1-.01-.04-.03-.1-.03-.17,0-.07,0-.14,0-.22,0-.11,0-.2.02-.27.01-.07.03-.13.06-.18s.06-.07.1-.07v1.04ZM227.03,25.51v-1.04h1.65l-.7.58v-4.06h1.21v4.52h-2.15ZM227.49,20.18v-.66h2.18v.66h-2.18ZM228.04,20.11c-.11-.14-.2-.27-.26-.4-.06-.13-.09-.26-.09-.41,0-.2.05-.39.16-.55.11-.17.25-.29.42-.39s.37-.14.58-.14c.11,0,.23.01.35.04s.22.08.31.13l-.31.55c-.05-.03-.11-.05-.16-.06-.05,0-.1-.01-.16-.01-.14,0-.25.04-.33.11-.08.08-.12.18-.12.3,0,.07.01.14.04.21.03.07.08.14.13.22l-.58.39Z"/>
      <path class="st0" d="M230.18,27.75c-.08,0-.16,0-.25,0s-.18-.01-.28-.03l.05-1.03c.1,0,.19.01.27.02.09,0,.15,0,.19,0,.23,0,.42-.09.56-.28.14-.19.21-.45.21-.78v-4.65h1.21v4.65c0,.41-.08.77-.25,1.09-.17.32-.39.57-.69.74-.29.18-.64.27-1.03.27ZM231.92,25.51v-1.04h1.16v1.04h-1.16ZM233.09,25.51v-1.04s.06.01.09.04c.02.02.04.06.05.11.01.05.03.1.03.17,0,.06,0,.13,0,.21s0,.15,0,.22c0,.07-.02.12-.03.17-.02.04-.03.08-.05.1-.02.02-.05.04-.09.04Z"/>
      <path class="st0" d="M233.09,25.51s-.06-.01-.09-.04c-.02-.02-.04-.06-.05-.1-.01-.04-.03-.1-.03-.17,0-.07,0-.14,0-.22,0-.11,0-.2.02-.27.01-.07.03-.13.06-.18s.06-.07.1-.07v1.04ZM233.09,25.51v-1.04h1.02v1.04h-1.02ZM234.1,25.51v-6.36h1.21v6.36h-1.21Z"/>
      <path class="st0" d="M236.75,25.51v-6.36h1.2v6.36h-1.2Z"/>
      <path class="st0" d="M241.06,27.75c-.08,0-.16,0-.25,0s-.18-.01-.28-.03l.05-1.03c.1,0,.19.01.27.02.09,0,.15,0,.19,0,.23,0,.42-.09.56-.28.14-.19.21-.45.21-.78v-4.65h1.21v4.65c0,.41-.08.77-.25,1.09-.17.32-.39.57-.69.74-.29.18-.64.27-1.03.27ZM241.82,20.17v-1.03h1.21v1.03h-1.21ZM242.81,25.51v-1.04h1.16v1.04h-1.16ZM243.97,25.51v-1.04s.06.01.09.04c.02.02.04.06.05.11.01.05.03.1.03.17,0,.06,0,.13,0,.21s0,.15,0,.22c0,.07-.02.12-.03.17-.02.04-.03.08-.05.1-.02.02-.05.04-.09.04Z"/>
      <path class="st0" d="M243.97,25.51s-.06-.01-.09-.04c-.02-.02-.04-.06-.05-.1-.01-.04-.03-.1-.03-.17,0-.07,0-.14,0-.22,0-.11,0-.2.02-.27.01-.07.03-.13.06-.18s.06-.07.1-.07v1.04ZM243.97,25.51v-1.04h4.52l-.4.32v-1.22c0-.31-.03-.56-.1-.75-.07-.19-.17-.32-.3-.4s-.3-.13-.51-.13h-1.97l-.75-1.08.46-.86c.05-.1.11-.21.18-.33.07-.12.15-.26.26-.43.11-.17.25-.38.41-.63l1.01.57c-.16.23-.28.43-.38.58-.1.15-.18.29-.24.4-.07.11-.13.23-.18.34l-.36.67-.18-.27h1.74c.38,0,.71.06.98.19.27.13.49.3.65.52.17.22.29.47.36.75.08.28.12.56.12.86v1.94h-5.33Z"/>
      <path class="st0" d="M250.26,27.75c-.08,0-.16,0-.25,0s-.18-.01-.28-.03l.05-1.03c.1,0,.19.01.27.02.09,0,.15,0,.19,0,.23,0,.42-.09.56-.28.14-.19.21-.45.21-.78v-4.65h1.21v4.65c0,.41-.08.77-.25,1.09-.17.32-.39.57-.69.74-.29.18-.64.27-1.03.27ZM252,25.51v-1.04h1.16v1.04h-1.16ZM253.16,25.51v-1.04s.06.01.09.04c.02.02.04.06.05.11.01.05.03.1.03.17,0,.06,0,.13,0,.21s0,.15,0,.22c0,.07-.02.12-.03.17-.02.04-.03.08-.05.1-.02.02-.05.04-.09.04Z"/>
      <path class="st0" d="M253.16,25.51s-.06-.01-.09-.04c-.02-.02-.04-.06-.05-.1-.01-.04-.03-.1-.03-.17,0-.07,0-.14,0-.22,0-.11,0-.2.02-.27.01-.07.03-.13.06-.18s.06-.07.1-.07v1.04ZM253.16,25.51v-1.04h4.67l-.55.47v-1.66c0-.32-.04-.58-.11-.76-.07-.18-.2-.31-.37-.39-.18-.07-.42-.11-.73-.11-.25,0-.49.02-.72.05s-.42.08-.55.13l.75-.7c-.04.14-.07.31-.1.52s-.06.43-.09.67c-.02.24-.04.47-.04.7,0,.21,0,.43.03.66.02.23.04.43.07.6.03.17.05.29.07.36l-1.14.31c-.02-.08-.05-.22-.09-.41-.04-.19-.07-.42-.09-.68-.03-.26-.04-.54-.04-.84s.01-.59.04-.87c.03-.28.06-.53.1-.76.04-.23.08-.41.11-.54.14-.05.37-.11.67-.16.31-.05.65-.08,1.02-.08.54,0,.99.08,1.35.23.36.15.62.39.8.73.18.34.27.79.27,1.36v2.22h-5.32ZM258.48,25.51v-1.04h.95v1.04h-.95ZM259.44,25.51v-1.04s.06.01.08.04c.02.02.04.06.05.11.01.05.02.1.03.17,0,.06.01.13.01.21s0,.15-.01.22c0,.07-.02.12-.03.17-.01.04-.03.08-.05.1-.02.02-.05.04-.08.04Z"/>
      <path class="st0" d="M259.44,25.51s-.06-.01-.09-.04c-.02-.02-.04-.06-.05-.1-.01-.04-.03-.1-.03-.17,0-.07,0-.14,0-.22,0-.11,0-.2.02-.27.01-.07.03-.13.06-.18s.06-.07.1-.07v1.04ZM259.44,25.51v-1.04h1.02v1.04h-1.02ZM260.45,25.51v-6.36h1.21v6.36h-1.21Z"/>
      <path class="st0" d="M263.1,25.51v-6.36h1.2v6.36h-1.2Z"/>
      <path class="st0" d="M267.54,23.69v-1.06h4.5v1.06h-4.5Z"/>
      <path class="st0" d="M276.67,25.51l-1.94-5.94h1.22l1.52,5.39-.8-.5h1.3l-.69.51,1.57-5.41h1.22l-2.01,5.94h-1.39Z"/>
      <path class="st0" d="M281.06,23.13v-1.17h1.27v1.17h-1.27Z"/>
      <path class="st0" d="M283.76,23.13v-1.17h1.27v1.17h-1.27Z"/>
      <path class="st0" d="M288.25,23.04c-.41,0-.77-.07-1.09-.22-.32-.15-.57-.36-.76-.63-.19-.27-.28-.59-.28-.95s.09-.68.27-.95c.18-.27.43-.48.76-.63.32-.15.68-.22,1.08-.22.11,0,.24,0,.37.02s.27.03.4.06.26.05.38.08l-.1.98c-.26-.03-.47-.05-.63-.07-.16-.02-.3-.03-.42-.03-.28,0-.5.07-.66.2s-.24.32-.24.57.08.44.24.57c.16.13.39.19.68.19v1.04ZM288.22,25.61c-.4,0-.75-.08-1.08-.22-.32-.15-.57-.36-.76-.63-.18-.27-.27-.59-.27-.95s.09-.67.28-.95c.19-.27.44-.48.76-.63.32-.15.69-.22,1.09-.22v1.04c-.29,0-.52.07-.68.2-.16.13-.24.32-.24.57s.08.43.24.57c.16.13.38.2.66.2.12,0,.26,0,.42-.03.16-.02.37-.04.63-.06l.1.98c-.12.03-.25.05-.38.08-.13.02-.27.04-.4.05-.13.02-.25.02-.37.02ZM288.25,23.04v-1.04h.63v1.04h-.63Z"/>
      <path class="st0" d="M292.42,25.51v-5.69l.94.79h-3.2v-1.04h3.46v5.94h-1.2Z"/>
      <path class="st0" d="M295.33,23.13v-1.17h1.27v1.17h-1.27Z"/>
      <path class="st0" d="M299.53,25.51l-1.94-5.94h1.22l1.52,5.39-.8-.5h1.3l-.69.51,1.57-5.41h1.22l-2.01,5.94h-1.39Z"/>
      <path class="st0" d="M305.41,19.57h1.39l2.01,5.94h-1.22l-1.57-5.41.69.51h-1.3l.8-.49-1.52,5.39h-1.22l1.94-5.94Z"/>
      <path class="st0" d="M311.6,25.51v-5.69l.94.79h-3.2v-1.04h3.46v5.94h-1.2Z"/>
      <path class="st0" d="M314.78,25.51v-5.94h3.67v1.04h-3.28l.8-.7v5.6h-1.2Z"/>
      <path class="st0" d="M323.79,27.75c-.39,0-.75-.06-1.08-.17s-.62-.26-.87-.46-.44-.43-.58-.69c-.14-.27-.21-.56-.21-.87,0-.11,0-.26.03-.44.02-.18.04-.39.08-.62.03-.23.07-.48.11-.75l1.19.16c-.06.38-.11.71-.14,1.01s-.05.5-.05.62c0,.23.06.43.19.6s.3.31.54.41c.23.1.5.15.82.15h2.55c.39,0,.68-.1.87-.29.19-.2.29-.49.29-.89,0-.2-.03-.35-.1-.46-.07-.11-.18-.21-.35-.29s-.41-.17-.73-.27c-.36-.11-.67-.22-.94-.32-.27-.1-.49-.21-.67-.34-.17-.12-.3-.27-.39-.45-.09-.17-.13-.39-.13-.66,0-.4.09-.72.26-.98.17-.26.42-.45.75-.58s.71-.19,1.15-.19c.2,0,.45.01.73.04.28.03.66.08,1.12.14l-.13,1c-.43-.05-.79-.08-1.06-.11-.28-.02-.51-.04-.7-.04-.22,0-.4.02-.54.07-.13.04-.23.11-.29.21-.06.09-.09.21-.09.36,0,.13.03.23.09.31.06.08.15.15.27.21.12.06.26.11.41.16.16.04.33.1.51.16.33.1.62.2.87.32s.46.25.63.4c.17.15.3.33.39.54.09.21.13.47.13.76,0,.43-.1.81-.29,1.14-.19.33-.46.59-.81.78-.35.19-.77.28-1.25.28h-2.55ZM323.48,29.67v-1.03h1.16v1.03h-1.16ZM325.12,29.67v-1.03h1.16v1.03h-1.16Z"/>
      <path class="st0" d="M329.57,27.75c-.08,0-.16,0-.25,0s-.18-.01-.28-.03l.05-1.03c.1,0,.19.01.27.02.09,0,.15,0,.19,0,.23,0,.42-.09.56-.28.14-.19.21-.45.21-.78v-4.65h1.21v4.65c0,.41-.08.77-.25,1.09-.17.32-.39.57-.69.74-.29.18-.64.27-1.03.27Z"/>
      <path class="st0" d="M332.95,25.51v-6.36h1.2v6.36h-1.2ZM334.15,25.51v-1.04h1.03v1.04h-1.03ZM335.17,25.51v-1.04s.06.01.08.04c.02.02.04.06.05.11.01.05.03.1.03.17,0,.06,0,.13,0,.21s0,.15,0,.22c0,.07-.02.12-.03.17-.02.04-.03.08-.05.1-.02.02-.05.04-.08.04Z"/>
      <path class="st0" d="M335.17,25.51s-.06-.01-.09-.04c-.02-.02-.04-.06-.05-.1-.01-.04-.03-.1-.03-.17,0-.07,0-.14,0-.22,0-.11,0-.2.02-.27.01-.07.03-.13.06-.18s.06-.07.1-.07v1.04ZM335.17,25.51v-1.04h3.87l-.41.33v-1.67c0-.36-.11-.63-.34-.82-.23-.19-.58-.28-1.07-.28-.14,0-.33,0-.57.03-.24.02-.5.05-.78.09l-.12-.95c.26-.06.52-.11.79-.15.27-.04.53-.06.79-.06.49,0,.92.08,1.3.26s.67.42.88.73c.21.32.32.7.32,1.15v2.38h-4.66ZM336.91,27.43v-1.03h1.21v1.03h-1.21ZM339.83,25.51v-1.04h.95v1.04h-.95ZM340.79,25.51v-1.04s.06.01.08.04.04.06.05.11c.01.05.02.1.03.17,0,.06.01.13.01.21s0,.15-.01.22c0,.07-.02.12-.03.17s-.03.08-.05.1-.05.04-.08.04Z"/>
      <path class="st0" d="M340.79,25.51s-.06-.01-.09-.04c-.02-.02-.04-.06-.05-.1-.01-.04-.03-.1-.03-.17,0-.07,0-.14,0-.22,0-.11,0-.2.02-.27.01-.07.03-.13.06-.18s.06-.07.1-.07v1.04ZM340.79,25.51v-1.04h2.13l-.7.58v-4.06h1.2v4.52h-2.63ZM341.43,20.17v-1.03h1.16v1.03h-1.16ZM343.07,20.17v-1.03h1.16v1.03h-1.16Z"/>
      <path class="st0" d="M349.11,27.75c-.52,0-.99-.09-1.4-.28-.41-.19-.73-.45-.97-.79s-.35-.72-.35-1.14c0-.12,0-.28.03-.48.02-.2.04-.42.08-.67.03-.25.07-.5.11-.75.04-.25.08-.5.11-.74l1.19.16c-.07.4-.12.77-.17,1.1-.04.33-.08.62-.1.85-.02.23-.04.41-.04.51,0,.24.06.45.18.62s.29.31.52.41c.22.1.5.15.81.15s.6-.05.8-.14.35-.23.45-.4c.09-.17.14-.36.14-.57v-6.44h1.21v6.44c0,.43-.11.81-.34,1.13-.22.32-.53.57-.92.75-.39.18-.83.27-1.33.27ZM351.71,25.51v-1.04h.95v1.04h-.95ZM352.65,25.51v-1.04s.06.01.08.04c.02.02.04.06.05.11.01.05.03.1.03.17,0,.06,0,.13,0,.21s0,.15,0,.22c0,.07-.02.12-.03.17-.02.04-.03.08-.05.1-.02.02-.05.04-.08.04Z"/>
      <path class="st0" d="M352.65,25.51s-.06-.01-.09-.04c-.02-.02-.04-.06-.05-.1-.01-.04-.03-.1-.03-.17,0-.07,0-.14,0-.22,0-.11,0-.2.02-.27.01-.07.03-.13.06-.18s.06-.07.1-.07v1.04ZM352.65,25.51v-1.04h3.87l-.41.33v-1.67c0-.36-.11-.63-.34-.82-.23-.19-.58-.28-1.07-.28-.14,0-.33,0-.57.03-.24.02-.5.05-.78.09l-.12-.95c.26-.06.52-.11.79-.15.27-.04.53-.06.79-.06.49,0,.92.08,1.3.26s.67.42.88.73c.21.32.32.7.32,1.15v2.38h-4.66ZM354.39,27.43v-1.03h1.21v1.03h-1.21ZM357.31,25.51v-1.04h.95v1.04h-.95ZM358.27,25.51v-1.04s.06.01.08.04.04.06.05.11c.01.05.02.1.03.17,0,.06.01.13.01.21s0,.15-.01.22c0,.07-.02.12-.03.17s-.03.08-.05.1-.05.04-.08.04Z"/>
      <path class="st0" d="M358.27,25.51s-.06-.01-.09-.04c-.02-.02-.04-.06-.05-.1-.01-.04-.03-.1-.03-.17,0-.07,0-.14,0-.22,0-.11,0-.2.02-.27.01-.07.03-.13.06-.18s.06-.07.1-.07v1.04ZM358.27,25.51v-1.04h1.31l-.27.28v-2.83h1.21v3.6h-2.25ZM360.52,25.51v-1.04h.73c.19,0,.34-.03.44-.09.1-.06.17-.17.21-.35s.06-.44.06-.8v-1.77h1.21v1.77c0,.53-.07.97-.2,1.31s-.34.58-.62.74c-.28.16-.65.23-1.09.23h-.73ZM363.56,25.51c-.25,0-.49-.05-.73-.14s-.47-.23-.67-.42l.74-.77c.12.1.23.17.34.21.1.04.21.07.33.07h1.68l-.62.57v-2c0-.1,0-.24-.03-.44-.02-.2-.05-.42-.09-.67s-.08-.5-.14-.76l1.19-.18c.04.22.08.46.12.72.04.27.07.52.1.76.03.24.04.42.04.56v2.47h-2.26Z"/>
      <path class="st0" d="M368.88,23.69v-1.06h4.5v1.06h-4.5Z"/>
      <path class="st0" d="M378.88,27.75c-.52,0-.99-.09-1.4-.28-.41-.19-.73-.45-.97-.79s-.35-.72-.35-1.14c0-.12,0-.28.03-.48.02-.2.04-.42.08-.67.03-.25.07-.5.11-.75.04-.25.08-.5.11-.74l1.19.16c-.07.4-.12.77-.17,1.1-.04.33-.08.62-.1.85-.02.23-.04.41-.04.51,0,.24.06.45.18.62s.29.31.52.41c.22.1.5.15.81.15s.6-.05.8-.14.35-.23.45-.4c.09-.17.14-.36.14-.57v-6.44h1.21v6.44c0,.43-.11.81-.34,1.13-.22.32-.53.57-.92.75-.39.18-.83.27-1.33.27Z"/>
      <path class="st0" d="M382.9,25.51v-6.36h1.2v6.36h-1.2ZM384.1,25.51v-1.04h1.03v1.04h-1.03ZM385.12,25.51v-1.04s.06.01.08.04c.02.02.04.06.05.11.01.05.03.1.03.17,0,.06,0,.13,0,.21s0,.15,0,.22c0,.07-.02.12-.03.17-.02.04-.03.08-.05.1-.02.02-.05.04-.08.04Z"/>
      <path class="st0" d="M385.12,25.51s-.06-.01-.09-.04c-.02-.02-.04-.06-.05-.1-.01-.04-.03-.1-.03-.17,0-.07,0-.14,0-.22,0-.11,0-.2.02-.27.01-.07.03-.13.06-.18s.06-.07.1-.07v1.04ZM385.12,25.51v-1.04h2.13l-.7.58v-4.06h1.2v4.52h-2.63ZM385.45,27.43v-1.03h1.16v1.03h-1.16ZM387.08,27.43v-1.03h1.16v1.03h-1.16Z"/>
      <path class="st0" d="M389.33,27.75c-.08,0-.16,0-.25,0s-.18-.01-.28-.03l.05-1.03c.1,0,.19.01.27.02.09,0,.15,0,.19,0,.23,0,.42-.09.56-.28.14-.19.21-.45.21-.78v-4.65h1.21v4.65c0,.41-.08.77-.25,1.09-.17.32-.39.57-.69.74-.29.18-.64.27-1.03.27Z"/>
      <path class="st0" d="M397.31,25.51c-.64,0-1.18-.08-1.62-.25-.44-.17-.77-.42-1-.75-.22-.33-.34-.74-.34-1.23,0-.14,0-.29.03-.45.02-.16.04-.31.07-.46.03-.15.05-.28.08-.39.02-.11.04-.2.05-.25l1.17.22c-.02.1-.04.22-.07.37-.03.15-.06.31-.08.47-.02.17-.04.32-.04.47,0,.23.04.43.11.58s.19.28.34.37c.15.09.34.16.57.19.23.04.5.05.8.05h4.38l-.36.32v-3.01l.31.26h-1.13c-.27,0-.48.03-.63.1-.15.07-.25.19-.31.36-.06.18-.09.43-.09.75,0,.35.03.62.09.79.06.17.17.29.31.34.15.06.36.09.63.09v.94c-.52,0-.94-.07-1.26-.22-.33-.14-.57-.37-.73-.69-.16-.31-.24-.73-.24-1.25s.08-.91.24-1.24c.16-.34.4-.59.73-.76s.75-.26,1.26-.26h2.03v4.52h-5.29ZM400.09,20.17v-1.03h1.21v1.03h-1.21ZM402.6,25.51v-1.04h.94v1.04h-.94ZM403.54,25.51v-1.04s.06.01.09.04c.02.02.04.06.05.11.02.05.03.1.03.17,0,.06,0,.13,0,.21s0,.15,0,.22c0,.07-.02.12-.03.17-.01.04-.03.08-.05.1-.02.02-.05.04-.09.04Z"/>
      <path class="st0" d="M403.55,25.51s-.06-.01-.09-.04c-.02-.02-.04-.06-.05-.1-.01-.04-.03-.1-.03-.17,0-.07,0-.14,0-.22,0-.11,0-.2.02-.27.01-.07.03-.13.06-.18s.06-.07.1-.07v1.04ZM403.55,25.51v-1.04h1.02v1.04h-1.02ZM404.56,25.51v-6.36h1.21v6.36h-1.21Z"/>
      <path class="st0" d="M407.21,25.51v-6.36h1.2v6.36h-1.2Z"/>
      <path class="st0" d="M411.71,25.51v-.97l1.36-1.4c.26-.26.48-.5.67-.7.19-.2.33-.39.43-.57.1-.18.15-.37.15-.58,0-.3-.08-.5-.25-.61-.17-.11-.44-.16-.81-.16-.15,0-.32,0-.5.03-.18.02-.35.04-.52.06-.17.02-.31.05-.43.07l-.06-.95c.13-.04.29-.08.49-.12.19-.04.41-.08.64-.11.23-.03.46-.05.68-.05.65,0,1.14.14,1.49.41.34.27.51.69.51,1.26,0,.31-.04.59-.13.83s-.22.47-.4.69c-.18.22-.42.46-.72.72l-1.19,1.13h2.53v1.01h-3.92Z"/>
      <path class="st0" d="M418.72,25.61c-.23,0-.47-.02-.74-.05-.26-.03-.52-.07-.76-.12-.25-.05-.46-.09-.63-.13l.11-.92c.16.02.35.05.58.09s.45.06.68.08c.23.02.45.03.64.03.31,0,.55-.08.73-.24.18-.16.27-.39.27-.7,0-.21-.04-.38-.11-.5-.08-.12-.18-.21-.32-.26-.14-.05-.3-.08-.49-.08-.14,0-.29.01-.43.04-.14.03-.28.06-.4.1s-.23.08-.31.12l-.81-.13.14-3.38h3.72v1.09h-2.74l-.12,1.32c.08-.04.19-.07.31-.11s.26-.07.41-.1c.15-.03.29-.04.43-.04.41,0,.77.06,1.05.17.29.11.51.3.66.57.15.26.23.62.23,1.08s-.09.86-.26,1.17-.41.53-.72.68c-.31.15-.68.22-1.11.22Z"/>
      <path class="st0" d="M426.22,27.75c-.52,0-.99-.09-1.4-.28-.41-.19-.73-.45-.97-.79s-.35-.72-.35-1.14c0-.12,0-.28.03-.48.02-.2.04-.42.08-.67.03-.25.07-.5.11-.75.04-.25.08-.5.11-.74l1.19.16c-.07.4-.12.77-.17,1.1-.04.33-.08.62-.1.85-.02.23-.04.41-.04.51,0,.24.06.45.18.62s.29.31.52.41c.22.1.5.15.81.15s.6-.05.8-.14.35-.23.45-.4c.09-.17.14-.36.14-.57v-6.44h1.21v6.44c0,.43-.11.81-.34,1.13-.22.32-.53.57-.92.75-.39.18-.83.27-1.33.27Z"/>
      <path class="st0" d="M430.25,25.51v-6.36h1.2v6.36h-1.2ZM431.44,25.51v-1.04h1.03v1.04h-1.03ZM432.47,25.51v-1.04s.06.01.08.04c.02.02.04.06.05.11.01.05.03.1.03.17,0,.06,0,.13,0,.21s0,.15,0,.22c0,.07-.02.12-.03.17-.02.04-.03.08-.05.1-.02.02-.05.04-.08.04Z"/>
      <path class="st0" d="M432.47,25.51s-.06-.01-.09-.04c-.02-.02-.04-.06-.05-.1-.01-.04-.03-.1-.03-.17,0-.07,0-.14,0-.22,0-.11,0-.2.02-.27.01-.07.03-.13.06-.18s.06-.07.1-.07v1.04ZM432.47,25.51v-1.04h4.67l-.55.47v-1.66c0-.32-.04-.58-.11-.76-.07-.18-.2-.31-.37-.39-.18-.07-.42-.11-.73-.11-.25,0-.49.02-.72.05s-.42.08-.55.13l.75-.7c-.04.14-.07.31-.1.52s-.06.43-.09.67c-.02.24-.04.47-.04.7,0,.21,0,.43.03.66.02.23.04.43.07.6.03.17.05.29.07.36l-1.14.31c-.02-.08-.05-.22-.09-.41-.04-.19-.07-.42-.09-.68-.03-.26-.04-.54-.04-.84s.01-.59.04-.87c.03-.28.06-.53.1-.76.04-.23.08-.41.11-.54.14-.05.37-.11.67-.16.31-.05.65-.08,1.02-.08.54,0,.99.08,1.35.23.36.15.62.39.8.73.18.34.27.79.27,1.36v2.22h-5.32Z"/>
      <path class="st0" d="M443.46,27.75c-.52,0-.99-.09-1.4-.28-.41-.19-.73-.45-.97-.79s-.35-.72-.35-1.14c0-.12,0-.28.03-.48.02-.2.04-.42.08-.67.03-.25.07-.5.11-.75.04-.25.08-.5.11-.74l1.19.16c-.07.4-.12.77-.17,1.1-.04.33-.08.62-.1.85-.02.23-.04.41-.04.51,0,.24.06.45.18.62s.29.31.52.41c.22.1.5.15.81.15s.6-.05.8-.14.35-.23.45-.4c.09-.17.14-.36.14-.57v-3.68h1.21v3.68c0,.43-.11.81-.34,1.13-.22.32-.53.57-.92.75-.39.18-.83.27-1.33.27ZM446.03,25.51l.02-1.04h.73c.19,0,.34-.03.44-.09.1-.06.17-.17.22-.35s.06-.44.06-.8v-1.77h1.21v1.77c0,.53-.07.97-.21,1.31-.14.34-.35.58-.63.74-.28.16-.65.23-1.09.23h-.75ZM449.09,25.51c-.25,0-.49-.05-.73-.14-.24-.09-.47-.23-.68-.42l.74-.77c.11.1.23.17.34.21.11.04.22.07.33.07h1.69l-.63.57v-2c0-.1-.01-.24-.04-.44-.02-.2-.05-.42-.09-.67-.04-.25-.08-.5-.13-.76l1.18-.18c.04.22.08.46.13.72.04.27.08.52.1.76.03.24.04.42.04.56v2.47h-2.26Z"/>
      <path class="st0" d="M452.24,18.5v-.66h2.18v.66h-2.18ZM452.79,18.43c-.11-.14-.2-.27-.26-.4-.06-.13-.09-.26-.09-.41,0-.2.05-.39.16-.55.11-.17.25-.29.42-.39s.37-.14.58-.14c.11,0,.23.01.35.04.12.03.22.08.31.13l-.31.55c-.05-.03-.11-.05-.16-.06-.05,0-.1-.01-.16-.01-.14,0-.25.04-.33.11s-.12.18-.12.3c0,.07.02.14.04.21.03.07.08.14.14.22l-.58.39ZM452.74,25.51v-6.36h1.2v6.36h-1.2Z"/>
      <path class="st0" d="M455.09,27.75c-.08,0-.16,0-.25,0s-.18-.01-.28-.03l.05-1.03c.1,0,.19.01.27.02.09,0,.15,0,.19,0,.23,0,.42-.09.56-.28.14-.19.21-.45.21-.78v-4.65h1.21v4.65c0,.41-.08.77-.25,1.09-.17.32-.39.57-.69.74-.29.18-.64.27-1.03.27Z"/>
      <path class="st0" d="M460.08,23.69v-1.06h4.5v1.06h-4.5Z"/>
      <path class="st0" d="M467.36,25.51v-2.04c0-.59.09-1.07.28-1.44.19-.36.46-.63.83-.79s.82-.25,1.35-.25.99.08,1.36.25.64.43.83.79.28.84.28,1.44v2.04h-4.92ZM468.57,25.01l-.58-.54h3.66l-.57.54v-1.51c0-.36-.04-.65-.11-.86-.07-.21-.2-.37-.38-.46-.18-.09-.44-.14-.78-.14s-.59.05-.77.14c-.18.09-.31.25-.38.46-.07.21-.1.5-.1.86v1.51ZM468.43,20.17v-1.03h1.16v1.03h-1.16ZM470.06,20.17v-1.03h1.16v1.03h-1.16Z"/>
      <path class="st0" d="M473.01,25.51v-1.04h3.27l-.82.71v-1.51c0-.43-.04-.76-.13-.99s-.23-.4-.43-.5-.48-.14-.82-.14h-.73v-1.04h.73c.55,0,1.02.09,1.41.27.39.18.68.47.88.86.2.39.3.91.3,1.54v1.84h-3.65Z"/>
      <path class="st0" d="M479.31,27.75c-.22,0-.46-.02-.7-.05-.24-.03-.5-.08-.78-.13l.18-.96c.3.04.55.06.76.08.21.02.39.03.53.03.43,0,.74-.08.94-.23s.29-.39.29-.7v-3.95l.3.22h-1.12c-.25,0-.44.03-.59.08-.15.06-.26.17-.33.35-.07.18-.1.45-.1.8s.03.6.09.77c.06.17.17.28.32.34.15.05.35.08.61.08h.83v1.04h-.83c-.51,0-.93-.08-1.26-.24s-.57-.41-.73-.74c-.16-.33-.24-.75-.24-1.25s.08-.92.24-1.26.4-.59.73-.77.75-.26,1.26-.26h2.03v4.78c0,.41-.1.76-.3,1.06s-.48.52-.85.68-.79.23-1.28.23Z"/>
      <path class="st0" d="M482.72,25.51v-1.04h3.27l-.82.71v-1.51c0-.43-.04-.76-.13-.99s-.23-.4-.43-.5-.48-.14-.82-.14h-.73v-1.04h.73c.55,0,1.02.09,1.41.27.39.18.68.47.88.86.2.39.3.91.3,1.54v1.84h-3.65ZM486.37,25.51v-1.04h.95v1.04h-.95ZM487.32,25.51v-1.04s.07.01.09.04c.02.02.04.06.05.11.01.05.02.1.03.17,0,.06,0,.13,0,.21s0,.15,0,.22c0,.07-.01.12-.03.17-.01.04-.03.08-.05.1-.02.02-.05.04-.09.04Z"/>
      <path class="st0" d="M487.32,25.51s-.06-.01-.09-.04c-.02-.02-.04-.06-.05-.1-.01-.04-.03-.1-.03-.17,0-.07,0-.14,0-.22,0-.11,0-.2.02-.27.01-.07.03-.13.06-.18s.06-.07.1-.07v1.04ZM487.32,25.51v-1.04h3.87l-.41.33v-1.67c0-.36-.11-.63-.34-.82-.23-.19-.58-.28-1.07-.28-.14,0-.33,0-.57.03-.24.02-.5.05-.78.09l-.12-.95c.26-.06.52-.11.79-.15.27-.04.53-.06.79-.06.49,0,.92.08,1.3.26s.67.42.88.73c.21.32.32.7.32,1.15v2.38h-4.66ZM491.98,25.51v-1.04h.95v1.04h-.95ZM492.93,25.51v-1.04s.06.01.08.04.04.06.05.11c.01.05.02.1.03.17,0,.06.01.13.01.21s0,.15-.01.22c0,.07-.02.12-.03.17s-.03.08-.05.1-.05.04-.08.04Z"/>
      <path class="st0" d="M492.93,25.51s-.06-.01-.09-.04c-.02-.02-.04-.06-.05-.1-.01-.04-.03-.1-.03-.17,0-.07,0-.14,0-.22,0-.11,0-.2.02-.27.01-.07.03-.13.06-.18s.06-.07.1-.07v1.04ZM492.93,25.51v-1.04h4.67l-.55.47v-1.66c0-.32-.04-.58-.11-.76-.07-.18-.2-.31-.37-.39-.18-.07-.42-.11-.73-.11-.25,0-.49.02-.72.05s-.42.08-.55.13l.75-.7c-.04.14-.07.31-.1.52s-.06.43-.09.67c-.02.24-.04.47-.04.7,0,.21,0,.43.03.66.02.23.04.43.07.6.03.17.05.29.07.36l-1.14.31c-.02-.08-.05-.22-.09-.41-.04-.19-.07-.42-.09-.68-.03-.26-.04-.54-.04-.84s.01-.59.04-.87c.03-.28.06-.53.1-.76.04-.23.08-.41.11-.54.14-.05.37-.11.67-.16.31-.05.65-.08,1.02-.08.54,0,.99.08,1.35.23.36.15.62.39.8.73.18.34.27.79.27,1.36v2.22h-5.32Z"/>
      <path class="st0" d="M503.44,25.51c-.51,0-.93-.08-1.26-.24s-.57-.41-.73-.74c-.16-.33-.24-.75-.24-1.25s.08-.92.24-1.26.4-.59.73-.77.75-.26,1.26-.26h2.03v3.95h-1.21v-3.17l.3.26h-1.12c-.25,0-.44.03-.59.08-.15.06-.26.17-.33.35-.07.18-.1.45-.1.8s.03.6.09.77c.06.17.17.28.32.34.15.05.35.08.61.08h2.98v1.04h-2.98ZM502.1,20.17v-1.03h1.16v1.03h-1.16ZM503.73,20.17v-1.03h1.16v1.03h-1.16ZM506.42,25.51v-1.04s.06.01.08.04c.02.02.04.06.05.11.01.05.03.1.03.17,0,.06,0,.13,0,.21s0,.15,0,.22c0,.07-.02.12-.03.17-.02.04-.03.08-.05.1-.02.02-.05.04-.08.04Z"/>
      <path class="st0" d="M506.41,25.51s-.06-.01-.09-.04c-.02-.02-.04-.06-.05-.1-.01-.04-.03-.1-.03-.17,0-.07,0-.14,0-.22,0-.11,0-.2.02-.27.01-.07.03-.13.06-.18s.06-.07.1-.07v1.04ZM506.41,25.51v-1.04h2.13l-.7.58v-4.06h1.2v4.52h-2.63ZM506.74,27.43v-1.03h1.16v1.03h-1.16ZM508.38,27.43v-1.03h1.16v1.03h-1.16ZM509.04,25.51v-1.04h1.12v1.04h-1.12ZM510.17,25.51v-1.04s.06.01.08.04.04.06.05.11c.01.05.02.1.03.17,0,.06.01.13.01.21s0,.15-.01.22c0,.07-.02.12-.03.17-.01.04-.03.08-.05.1-.02.02-.05.04-.09.04Z"/>
      <path class="st0" d="M510.17,25.51s-.06-.01-.09-.04c-.02-.02-.04-.06-.05-.1-.01-.04-.03-.1-.03-.17,0-.07,0-.14,0-.22,0-.11,0-.2.02-.27.01-.07.03-.13.06-.18s.06-.07.1-.07v1.04ZM510.17,25.51v-1.04h1.02v1.04h-1.02ZM511.18,25.51v-6.36h1.21v6.36h-1.21Z"/>
      <path class="st0" d="M515.22,27.75c-.22,0-.46-.02-.7-.05-.24-.03-.5-.08-.78-.13l.18-.96c.3.04.55.06.76.08.21.02.39.03.53.03.43,0,.74-.08.94-.23s.29-.39.29-.7v-3.95l.3.22h-1.12c-.25,0-.44.03-.59.08-.15.06-.26.17-.33.35-.07.18-.1.45-.1.8s.03.6.09.77c.06.17.17.28.32.34.15.05.35.08.61.08h.83v1.04h-.83c-.51,0-.93-.08-1.26-.24s-.57-.41-.73-.74c-.16-.33-.24-.75-.24-1.25s.08-.92.24-1.26.4-.59.73-.77.75-.26,1.26-.26h2.03v4.78c0,.41-.1.76-.3,1.06s-.48.52-.85.68-.79.23-1.28.23Z"/>
      <path class="st0" d="M520.46,27.75c-.22,0-.46-.02-.7-.05-.24-.03-.5-.08-.78-.13l.18-.96c.3.04.55.06.76.08.21.02.39.03.53.03.43,0,.74-.08.94-.23s.29-.39.29-.7v-3.95l.3.22h-1.12c-.25,0-.44.03-.59.08-.15.06-.26.17-.33.35-.07.18-.1.45-.1.8s.03.6.09.77c.06.17.17.28.32.34.15.05.35.08.61.08h.83v1.04h-.83c-.51,0-.93-.08-1.26-.24s-.57-.41-.73-.74c-.16-.33-.24-.75-.24-1.25s.08-.92.24-1.26.4-.59.73-.77.75-.26,1.26-.26h2.03v4.78c0,.41-.1.76-.3,1.06s-.48.52-.85.68-.79.23-1.28.23ZM519.83,20.18v-.66h2.18v.66h-2.18ZM520.38,20.11c-.11-.14-.2-.27-.26-.4-.06-.13-.09-.26-.09-.41,0-.2.05-.39.16-.55.11-.17.25-.29.42-.39.17-.09.37-.14.58-.14.11,0,.23.01.35.04.12.03.22.08.31.13l-.31.55c-.05-.03-.11-.05-.16-.06-.05,0-.1-.01-.16-.01-.14,0-.25.04-.33.11s-.12.18-.12.3c0,.07.02.14.04.21.03.07.08.14.14.22l-.58.39ZM522.89,25.51v-1.04h.95v1.04h-.95ZM523.84,25.51v-1.04s.06.01.08.04c.02.02.04.06.05.11.01.05.03.1.03.17,0,.06,0,.13,0,.21s0,.15,0,.22c0,.07-.02.12-.03.17-.02.04-.03.08-.05.1-.02.02-.05.04-.08.04Z"/>
      <path class="st0" d="M523.84,25.51s-.06-.01-.09-.04c-.02-.02-.04-.06-.05-.1-.01-.04-.03-.1-.03-.17,0-.07,0-.14,0-.22,0-.11,0-.2.02-.27.01-.07.03-.13.06-.18s.06-.07.1-.07v1.04ZM523.84,25.51v-1.04h1.31l-.27.28v-2.83h1.21v3.6h-2.25ZM526.09,25.51v-1.04h.73c.19,0,.34-.03.44-.09.1-.06.17-.17.21-.35s.06-.44.06-.8v-1.77h1.21v1.77c0,.53-.07.97-.2,1.31s-.34.58-.62.74c-.28.16-.65.23-1.09.23h-.73ZM529.13,25.51c-.25,0-.49-.05-.73-.14s-.47-.23-.67-.42l.74-.77c.12.1.23.17.34.21.1.04.21.07.33.07h1.68l-.62.57v-2c0-.1,0-.24-.03-.44-.02-.2-.05-.42-.09-.67s-.08-.5-.14-.76l1.19-.18c.04.22.08.46.12.72.04.27.07.52.1.76.03.24.04.42.04.56v2.47h-2.26ZM531.39,25.51v-1.04h.95v1.04h-.95ZM532.34,25.51v-1.04s.06.01.08.04c.02.02.04.06.05.11.01.05.02.1.03.17,0,.06.01.13.01.21s0,.15-.01.22c0,.07-.02.12-.03.17-.01.04-.03.08-.05.1-.02.02-.05.04-.08.04Z"/>
      <path class="st0" d="M532.34,25.51s-.06-.01-.09-.04c-.02-.02-.04-.06-.05-.1-.01-.04-.03-.1-.03-.17,0-.07,0-.14,0-.22,0-.11,0-.2.02-.27.01-.07.03-.13.06-.18s.06-.07.1-.07v1.04ZM532.34,25.51v-1.04h4.67l-.55.47v-1.66c0-.32-.04-.58-.11-.76-.07-.18-.2-.31-.37-.39-.18-.07-.42-.11-.73-.11-.25,0-.49.02-.72.05s-.42.08-.55.13l.75-.7c-.04.14-.07.31-.1.52s-.06.43-.09.67c-.02.24-.04.47-.04.7,0,.21,0,.43.03.66.02.23.04.43.07.6.03.17.05.29.07.36l-1.14.31c-.02-.08-.05-.22-.09-.41-.04-.19-.07-.42-.09-.68-.03-.26-.04-.54-.04-.84s.01-.59.04-.87c.03-.28.06-.53.1-.76.04-.23.08-.41.11-.54.14-.05.37-.11.67-.16.31-.05.65-.08,1.02-.08.54,0,.99.08,1.35.23.36.15.62.39.8.73.18.34.27.79.27,1.36v2.22h-5.32Z"/>
      <path class="st0" d="M543.58,25.51c-.64,0-1.18-.08-1.62-.25-.44-.17-.77-.42-1-.75-.22-.33-.34-.74-.34-1.23,0-.14,0-.29.03-.45.02-.16.04-.31.07-.46.03-.15.05-.28.08-.39.02-.11.04-.2.05-.25l1.17.22c-.02.1-.04.22-.07.37-.03.15-.06.31-.08.47-.02.17-.04.32-.04.47,0,.23.04.43.11.58s.19.28.34.37c.15.09.34.16.57.19.23.04.5.05.8.05h2.4v-3.47h1.21v4.52h-3.67ZM542.54,20.81v-1.03h1.16v1.03h-1.16ZM544.18,20.81v-1.03h1.16v1.03h-1.16Z"/>
      <path class="st0" d="M548.61,25.51v-6.36h1.2v6.36h-1.2Z"/>
      <path class="st0" d="M550.97,25.51v-1.04h3.27l-.82.71v-1.51c0-.43-.04-.76-.13-.99s-.23-.4-.43-.5-.48-.14-.82-.14h-.73v-1.04h.73c.55,0,1.02.09,1.41.27.39.18.68.47.88.86.2.39.3.91.3,1.54v1.84h-3.65ZM551.44,20.17v-1.03h1.21v1.03h-1.21Z"/>
      <path class="st0" d="M559.63,25.51c-.51,0-.93-.08-1.26-.24s-.57-.41-.73-.74c-.16-.33-.24-.75-.24-1.25s.08-.92.24-1.26.4-.59.73-.77.75-.26,1.26-.26h2.03v3.95h-1.21v-3.17l.3.26h-1.12c-.25,0-.44.03-.59.08-.15.06-.26.17-.33.35-.07.18-.1.45-.1.8s.03.6.09.77c.06.17.17.28.32.34.15.05.35.08.61.08h2.98v1.04h-2.98ZM558.29,20.17v-1.03h1.16v1.03h-1.16ZM559.93,20.17v-1.03h1.16v1.03h-1.16ZM562.61,25.51v-1.04s.06.01.08.04c.02.02.04.06.05.11.01.05.03.1.03.17,0,.06,0,.13,0,.21s0,.15,0,.22c0,.07-.02.12-.03.17-.02.04-.03.08-.05.1-.02.02-.05.04-.08.04Z"/>
      <path class="st0" d="M562.61,25.51s-.06-.01-.09-.04c-.02-.02-.04-.06-.05-.1-.01-.04-.03-.1-.03-.17,0-.07,0-.14,0-.22,0-.11,0-.2.02-.27.01-.07.03-.13.06-.18s.06-.07.1-.07v1.04ZM562.61,25.51v-1.04h4.52l-.4.32v-1.22c0-.31-.03-.56-.1-.75-.07-.19-.17-.32-.3-.4s-.3-.13-.51-.13h-1.97l-.75-1.08.46-.86c.05-.1.11-.21.18-.33.07-.12.15-.26.26-.43.11-.17.25-.38.41-.63l1.01.57c-.16.23-.28.43-.38.58-.1.15-.18.29-.24.4-.07.11-.13.23-.18.34l-.36.67-.18-.27h1.74c.38,0,.71.06.98.19.27.13.49.3.65.52.17.22.29.47.36.75.08.28.12.56.12.86v1.94h-5.33Z"/>
      <path class="st0" d="M568.9,27.75c-.08,0-.16,0-.25,0s-.18-.01-.28-.03l.05-1.03c.1,0,.19.01.27.02.09,0,.15,0,.19,0,.23,0,.42-.09.56-.28.14-.19.21-.45.21-.78v-4.65h1.21v4.65c0,.41-.08.77-.25,1.09-.17.32-.39.57-.69.74-.29.18-.64.27-1.03.27ZM570.86,22.94v-1.05h1.89v1.05h-1.89ZM572.75,25.51v-4.52h1.21v4.52h-1.21ZM573.96,25.51v-1.04h.73c.19,0,.34-.03.44-.09.1-.06.17-.17.22-.35s.06-.44.06-.8v-1.77h1.21v1.77c0,.53-.07.97-.21,1.31-.14.34-.35.58-.63.74-.28.16-.64.23-1.09.23h-.73ZM574.62,20.17v-1.03h1.16v1.03h-1.16ZM575.49,18.79v-.9h1.04v.9h-1.04ZM577,25.51c-.25,0-.49-.05-.73-.14s-.46-.23-.67-.42l.75-.77c.11.1.22.17.33.21.11.04.22.07.32.07h1.69l-.63.57v-2c0-.1-.01-.24-.03-.44-.02-.2-.05-.42-.09-.67s-.08-.5-.13-.76l1.18-.18c.04.22.08.46.13.72.04.27.08.52.1.76.03.24.04.42.04.56v2.47h-2.26ZM576.26,20.17v-1.03h1.16v1.03h-1.16Z"/>
    </g>
    <g>
      <line class="st1" x1="15.43" y1="10.81" x2="579.84" y2="10.81"/>
      <line class="st1" x1="15.43" y1="8.38" x2="579.84" y2="8.38"/>
    </g>
  </g>
</svg>